<?xml version="1.0" standalone="no"?>
<!DOCTYPE svg PUBLIC "-//W3C//DTD SVG 20010904//EN"
 "http://www.w3.org/TR/2001/REC-SVG-20010904/DTD/svg10.dtd">
<svg version="1.0" xmlns="http://www.w3.org/2000/svg"
 width="512.000000pt" height="512.000000pt" viewBox="0 0 512.000000 512.000000"
 preserveAspectRatio="xMidYMid meet">
<metadata>
Created by potrace 1.16, written by Peter Selinger 2001-2019
</metadata>
<g transform="translate(0.000000,512.000000) scale(0.100000,-0.100000)"
fill="#000000" stroke="none">
<path d="M2665 4033 c-31 -8 -65 -44 -65 -70 0 -32 22 -29 42 7 20 35 59 40
108 15 37 -19 37 -30 0 -88 -21 -33 -25 -47 -16 -47 19 0 87 110 84 134 -2 14
-20 24 -68 37 -36 10 -65 18 -65 17 0 0 -9 -2 -20 -5z"/>
<path d="M2904 3971 c3 -4 20 -11 37 -15 17 -3 72 -22 121 -42 49 -20 92 -34
94 -31 6 6 -110 53 -191 78 -70 22 -68 22 -61 10z"/>
<path d="M2672 3896 c-94 -96 -91 -106 28 -106 52 0 92 4 95 11 11 16 3 19
-68 20 -37 1 -67 5 -67 8 0 4 23 29 50 56 45 44 65 85 42 85 -5 0 -41 -33 -80
-74z"/>
<path d="M2350 3936 c-89 -26 -219 -82 -240 -102 -8 -8 19 1 60 20 66 30 148
59 270 94 29 8 31 10 10 10 -14 1 -59 -9 -100 -22z"/>
<path d="M3186 3714 c-37 -91 -37 -96 -20 -109 11 -8 21 -14 24 -13 3 0 34 31
69 69 52 56 61 70 47 75 -12 5 -31 -8 -67 -47 l-49 -54 20 54 c12 30 26 63 31
74 8 14 7 23 -3 33 -12 12 -19 0 -52 -82z"/>
<path d="M2062 3709 l-51 -40 51 -70 c28 -38 55 -72 60 -75 9 -6 34 8 83 50
23 19 27 27 18 37 -9 9 -20 5 -49 -20 -27 -22 -41 -28 -49 -20 -7 7 1 21 28
43 20 18 37 36 37 40 0 13 -24 5 -56 -19 -45 -34 -56 -13 -15 29 39 40 30 54
-14 21 -48 -37 -54 -30 -11 14 52 53 30 60 -32 10z"/>
<path d="M3316 3619 c-80 -66 -79 -64 -62 -78 11 -9 26 -1 77 44 60 52 79 64
79 49 0 -4 -27 -37 -60 -74 -50 -56 -58 -70 -46 -79 11 -10 23 -5 58 21 24 18
60 44 81 58 43 29 54 63 12 36 -14 -9 -37 -24 -52 -33 l-28 -18 28 36 c15 20
27 40 27 46 0 12 -33 43 -46 42 -5 0 -36 -23 -68 -50z"/>
<path d="M1890 3543 c-19 -18 -33 -41 -36 -64 -5 -31 -1 -42 24 -70 25 -28 37
-34 72 -34 34 0 47 6 66 28 28 33 34 97 9 97 -9 0 -15 -9 -15 -23 0 -26 -38
-67 -61 -67 -8 0 -25 7 -37 16 -42 29 -19 101 40 120 26 8 22 24 -7 24 -14 0
-38 -12 -55 -27z"/>
<path d="M3412 3486 c-42 -43 -60 -69 -56 -80 3 -9 8 -16 9 -16 9 0 130 133
130 143 0 27 -26 12 -83 -47z"/>
<path d="M2471 3529 c-93 -18 -224 -72 -276 -113 -19 -16 -19 -16 5 -7 14 5
50 20 80 34 97 43 200 60 354 59 77 -1 136 1 133 4 -3 4 -32 13 -64 20 -64 15
-164 16 -232 3z"/>
<path d="M3501 3489 c-13 -11 -31 -24 -40 -28 -13 -8 -11 -15 14 -50 33 -49
43 -57 56 -44 5 5 -1 23 -16 45 -24 35 -24 36 -5 53 19 17 21 17 41 -9 35 -45
53 -60 57 -48 5 15 -58 102 -72 102 -6 -1 -22 -10 -35 -21z"/>
<path d="M3265 3490 c3 -5 8 -10 11 -10 2 0 4 5 4 10 0 6 -5 10 -11 10 -5 0
-7 -4 -4 -10z"/>
<path d="M3167 3460 c11 -14 38 -56 59 -95 21 -38 61 -97 90 -130 96 -112 156
-223 199 -370 70 -243 55 -489 -40 -660 -46 -82 -39 -85 10 -5 148 243 153
567 14 859 -65 138 -156 254 -286 366 -37 33 -58 48 -46 35z"/>
<path d="M3530 3430 c12 -16 23 -30 26 -30 2 0 -2 14 -11 30 -9 17 -20 30 -26
30 -6 0 -1 -13 11 -30z"/>
<path d="M3414 3425 c-3 -7 6 -29 20 -48 14 -19 26 -42 26 -52 0 -17 1 -17 20
0 19 18 19 18 -10 55 -17 21 -30 43 -30 49 0 16 -20 13 -26 -4z"/>
<path d="M1459 3364 c-7 -9 -54 -44 -104 -77 -92 -61 -127 -88 -88 -68 12 6
35 11 52 11 28 0 31 -3 31 -30 0 -16 -9 -53 -19 -82 -23 -63 -73 -238 -92
-323 -10 -41 -14 -130 -14 -280 1 -188 4 -234 22 -315 84 -372 296 -699 598
-925 196 -147 412 -215 679 -216 193 0 341 36 522 128 98 50 140 83 64 50
-172 -74 -331 -107 -515 -107 -439 0 -803 209 -1079 620 -107 159 -158 287
-207 522 -36 170 -49 425 -30 570 22 166 75 321 159 468 41 70 46 84 21 54z"/>
<path d="M1722 3334 c-12 -19 -20 -40 -16 -45 9 -15 140 -99 153 -99 6 0 15 9
20 19 8 14 7 20 -4 25 -8 3 -15 14 -15 26 0 23 -80 110 -101 110 -8 0 -24 -16
-37 -36z m78 -40 c17 -20 29 -38 27 -41 -11 -10 -86 49 -80 63 8 21 18 17 53
-22z"/>
<path d="M2665 3359 c-28 -4 -66 -15 -85 -23 l-35 -15 52 -1 c54 0 80 -15 41
-23 -13 -2 11 -5 52 -6 85 -1 170 -20 233 -52 65 -33 177 -128 177 -151 0 -10
4 -17 8 -14 5 3 9 -1 9 -9 0 -7 -25 8 -55 35 -63 57 -153 103 -243 126 -50 13
-89 15 -174 10 -60 -3 -122 -8 -137 -10 -38 -6 -148 -86 -183 -133 -28 -37
-28 -37 25 11 88 78 192 117 314 118 177 0 318 -70 470 -233 79 -84 110 -146
133 -255 11 -57 13 -88 6 -125 -6 -28 -6 -52 -2 -55 5 -3 9 3 9 13 0 13 3 14
8 5 5 -7 9 15 10 53 2 58 -7 118 -25 180 -3 11 -3 17 1 14 10 -9 66 -174 75
-221 8 -37 9 -31 10 47 3 245 -125 491 -325 625 -113 75 -254 109 -369 89z"/>
<path d="M1666 3215 c-9 -13 -16 -26 -16 -29 0 -11 152 -87 165 -82 28 10 15
24 -50 55 -36 16 -65 35 -65 41 0 6 5 8 11 5 6 -4 5 2 -3 14 -17 27 -22 26
-42 -4z"/>
<path d="M2530 3107 c-106 -36 -205 -111 -257 -193 -12 -19 -12 -19 -6 1 6 18
3 17 -21 -5 -45 -40 -87 -108 -112 -179 -19 -54 -24 -86 -24 -181 0 -135 15
-204 65 -299 109 -206 282 -317 490 -315 136 1 269 37 330 89 l20 17 -20 -7
c-11 -4 -45 -17 -75 -28 -81 -31 -241 -29 -325 3 -211 81 -349 253 -390 486
-8 43 -14 101 -15 127 0 60 27 193 47 227 9 16 12 18 8 5 -20 -60 -26 -86 -34
-148 -13 -94 2 -181 47 -285 81 -189 277 -315 482 -310 l55 1 -63 7 c-34 4
-65 9 -68 13 -3 3 19 12 50 21 30 9 58 21 61 26 4 6 32 23 63 39 67 34 138 91
181 144 16 21 32 37 35 35 2 -2 17 8 32 22 30 28 78 126 88 180 4 23 -2 14
-17 -27 -25 -65 -86 -167 -95 -159 -2 3 3 17 13 32 48 73 73 207 56 299 -50
274 -343 450 -601 362z m420 -167 c105 -105 141 -261 90 -394 -14 -39 -22 -28
-10 15 25 87 2 219 -55 309 -15 25 -51 67 -79 94 -45 43 -47 46 -18 32 18 -10
50 -34 72 -56z m-175 22 c22 -11 56 -35 75 -52 l35 -31 -42 25 c-45 28 -124
51 -145 43 -7 -2 8 -14 34 -25 97 -43 168 -134 182 -237 9 -59 -5 -51 -23 14
-18 64 -101 143 -164 160 -138 34 -251 -57 -281 -226 -3 -18 -1 -35 4 -38 5
-3 7 -12 3 -20 -3 -8 0 -15 6 -15 6 0 8 -7 4 -17 -4 -11 -3 -14 5 -9 7 4 10 2
7 -7 -7 -16 31 -68 48 -64 6 1 11 -4 12 -11 0 -15 26 -33 37 -26 4 3 5 -2 2
-10 -7 -19 58 -91 105 -117 l36 -19 -55 6 c-130 15 -230 82 -290 196 -29 54
-35 75 -38 150 -4 76 -1 92 21 142 48 104 119 172 211 202 57 19 161 12 211
-14z m-127 -288 c16 -11 22 -25 22 -51 0 -49 -24 -73 -72 -73 l-38 0 0 63 c0
35 3 67 7 70 12 12 58 7 81 -9z m142 6 c0 -5 -13 -10 -30 -10 -20 0 -30 -5
-30 -15 0 -9 9 -15 25 -15 16 0 25 -6 25 -15 0 -10 -10 -15 -30 -15 -32 0 -33
-1 -24 -24 4 -10 18 -16 35 -16 16 0 29 -4 29 -10 0 -5 -22 -10 -50 -10 l-50
0 0 63 c0 35 3 67 7 70 10 11 93 8 93 -3z m220 -190 c-6 -11 -13 -20 -16 -20
-2 0 0 9 6 20 6 11 13 20 16 20 2 0 0 -9 -6 -20z"/>
<path d="M2590 2616 c0 -32 4 -46 14 -46 41 0 49 82 9 88 -21 3 -23 -1 -23
-42z"/>
<path d="M2022 3083 c-35 -50 -90 -167 -113 -243 -33 -105 -33 -282 0 -390 39
-126 114 -260 167 -294 26 -18 26 -18 -6 29 -55 80 -118 225 -135 314 -26 126
-17 310 19 416 15 44 42 106 61 138 36 60 40 76 7 30z"/>
<path d="M3750 2674 c-23 -25 -40 -48 -37 -50 2 -2 21 -5 41 -6 23 -1 36 -6
36 -15 0 -7 5 -13 10 -13 6 0 10 7 10 15 0 8 7 15 15 15 8 0 15 4 15 10 0 5
-7 7 -15 4 -12 -5 -15 3 -15 40 0 25 -4 46 -9 46 -5 0 -27 -21 -51 -46z m40
-8 c0 -18 -5 -24 -19 -23 -19 1 -19 8 2 35 14 17 17 15 17 -12z"/>
<path d="M1661 2694 c0 -11 3 -14 6 -6 3 7 2 16 -1 19 -3 4 -6 -2 -5 -13z"/>
<path d="M3861 2643 c9 -48 15 -60 25 -51 10 11 -8 98 -21 98 -9 0 -10 -11 -4
-47z"/>
<path d="M3908 2679 c13 -5 28 -7 33 -3 14 8 11 -3 -11 -46 -15 -28 -17 -40
-8 -40 11 0 48 71 48 93 0 4 -19 7 -42 6 -37 0 -40 -2 -20 -10z"/>
<path d="M1648 2640 c-11 -37 -10 -178 3 -246 41 -231 184 -450 378 -577 175
-116 260 -139 501 -140 97 0 188 5 205 11 27 9 24 10 -32 11 -75 1 -345 54
-414 81 -281 111 -515 346 -595 595 -17 52 -28 116 -32 185 -5 69 -10 96 -14
80z"/>
<path d="M1484 2598 c1 -35 26 -65 38 -46 3 6 0 18 -8 25 -8 8 -14 23 -14 34
0 10 -4 19 -9 19 -4 0 -8 -15 -7 -32z"/>
<path d="M1516 2619 c3 -6 15 -9 25 -6 17 4 19 -1 19 -39 0 -24 5 -44 10 -44
6 0 10 23 10 50 l0 50 -36 0 c-23 0 -33 -4 -28 -11z"/>
<path d="M1406 2604 c-9 -24 -7 -29 6 -16 7 7 18 12 25 12 17 0 17 -27 1 -33
-8 -4 -7 -6 3 -6 22 -1 33 28 18 45 -15 19 -45 18 -53 -2z"/>
<path d="M1407 2554 c-15 -15 -6 -24 22 -24 17 0 33 5 36 10 3 6 0 10 -9 10
-8 0 -21 2 -28 5 -8 3 -17 2 -21 -1z"/>
<path d="M3560 1967 c-185 -229 -462 -402 -731 -457 -149 -31 -338 -25 -459
15 -196 64 -354 167 -512 335 -54 57 -98 99 -98 93 0 -19 184 -204 263 -264
97 -74 271 -160 382 -190 111 -31 312 -31 441 -2 235 55 458 184 635 371 84
87 154 171 148 176 -2 2 -33 -33 -69 -77z"/>
<path d="M2785 1833 c-22 -8 -64 -17 -93 -20 -65 -7 -79 -23 -20 -23 54 0 104
14 143 40 35 23 27 24 -30 3z"/>
<path d="M3184 1274 c-18 -14 -18 -15 4 -4 12 6 22 13 22 15 0 8 -5 6 -26 -11z"/>
<path d="M2682 538 c-2 -30 -6 -38 -21 -38 -11 0 -22 6 -24 13 -4 9 -6 9 -6
-1 -1 -8 8 -16 19 -19 11 -3 20 -9 20 -13 0 -5 -9 -6 -20 -3 -11 3 -20 0 -20
-6 0 -16 35 -14 49 3 7 8 11 33 8 58 -3 43 -4 43 -5 6z"/>
<path d="M2771 523 c1 -53 6 -49 11 10 2 20 0 37 -4 37 -4 0 -8 -21 -7 -47z"/>
<path d="M2271 523 c1 -21 3 -30 6 -20 5 21 33 23 33 2 0 -8 3 -14 8 -13 4 1
17 -2 30 -6 13 -4 28 -3 36 3 8 6 16 7 22 1 5 -5 10 7 11 33 l2 42 -14 -30
c-10 -20 -14 -24 -15 -12 0 13 -6 17 -22 15 -30 -4 -35 -28 -6 -29 18 -1 19
-2 4 -6 -21 -6 -41 11 -41 35 0 11 -10 18 -27 20 -26 3 -28 1 -27 -35z m34 17
c-3 -5 -10 -10 -16 -10 -5 0 -9 5 -9 10 0 6 7 10 16 10 8 0 12 -4 9 -10z"/>
<path d="M2443 543 c-7 -3 -13 -16 -13 -29 0 -19 5 -24 24 -24 18 0 24 5 24
24 0 26 -14 36 -35 29z m13 -22 c-4 -5 -1 -12 4 -14 6 -3 5 -4 -2 -3 -15 3
-23 26 -8 26 6 0 9 -4 6 -9z"/>
<path d="M2497 533 c-13 -12 -7 -44 8 -49 8 -4 22 -1 30 6 8 7 15 9 16 4 1 -5
5 2 9 16 8 24 8 24 9 3 1 -13 5 -23 10 -23 9 0 21 24 21 41 0 17 -35 9 -53
-11 -9 -11 -25 -19 -34 -19 -16 1 -16 2 1 6 15 4 16 7 5 15 -11 8 -10 9 4 4 9
-3 17 -1 17 4 0 11 -33 14 -43 3z"/>
<path d="M2617 533 c-4 -3 -7 -16 -6 -27 0 -21 0 -21 9 1 6 15 15 20 29 16 12
-3 21 -1 21 6 0 12 -42 15 -53 4z"/>
<path d="M2700 515 c0 -31 17 -33 23 -2 l4 22 2 -22 c0 -13 7 -23 15 -23 9 0
12 8 8 25 -3 18 -11 25 -28 25 -19 0 -24 -5 -24 -25z"/>
<path d="M2799 538 c-11 -49 -3 -64 30 -53 27 8 22 49 -6 53 -13 2 -23 2 -24
0z m31 -32 c0 -3 -4 -8 -10 -11 -5 -3 -10 -1 -10 4 0 6 5 11 10 11 6 0 10 -2
10 -4z"/>
<path d="M2858 509 c3 -21 8 -27 16 -20 7 6 18 6 25 1 22 -13 41 0 41 26 0 21
-4 23 -43 22 -42 0 -43 -1 -39 -29z m72 6 c0 -8 -7 -15 -15 -15 -8 0 -15 7
-15 15 0 8 7 15 15 15 8 0 15 -7 15 -15z"/>
<path d="M2951 513 l1 -28 8 25 c8 24 8 24 9 3 1 -13 6 -23 12 -23 18 0 5 45
-13 48 -14 3 -18 -3 -17 -25z"/>
</g>
</svg>