<?xml version="1.0" standalone="no"?>
<!DOCTYPE svg PUBLIC "-//W3C//DTD SVG 20010904//EN"
 "http://www.w3.org/TR/2001/REC-SVG-20010904/DTD/svg10.dtd">
<svg version="1.0" xmlns="http://www.w3.org/2000/svg"
 width="1024.000000pt" height="1024.000000pt" viewBox="0 0 1024.000000 1024.000000"
 preserveAspectRatio="xMidYMid meet">

<g transform="translate(0.000000,1024.000000) scale(0.100000,-0.100000)"
fill="#000000" stroke="none">
<path d="M4900 9195 c-80 -23 -180 -65 -364 -152 -311 -146 -429 -201 -481
-223 -27 -12 -117 -53 -200 -92 -82 -38 -179 -83 -215 -98 -96 -42 -432 -200
-615 -290 -88 -43 -191 -91 -230 -106 -38 -15 -74 -31 -80 -35 -5 -4 -64 -31
-130 -59 -145 -63 -246 -121 -274 -156 -15 -19 -21 -41 -21 -76 0 -76 31 -122
115 -168 59 -33 212 -110 218 -110 3 0 50 -21 104 -46 54 -26 175 -82 268
-125 94 -43 186 -88 205 -98 19 -11 54 -29 78 -40 l42 -20 0 -246 c0 -135 -4
-245 -9 -245 -4 0 -16 30 -26 67 -24 87 -79 148 -168 188 -85 39 -153 44 -211
16 -130 -63 -201 -163 -200 -281 1 -86 34 -171 80 -208 l34 -27 0 -162 0 -162
-69 29 c-95 41 -165 41 -243 1 l-58 -30 0 213 0 213 37 11 c53 16 148 94 183
149 16 25 41 77 56 115 23 60 25 80 22 161 -3 87 -5 96 -42 154 -50 80 -121
147 -194 181 -50 24 -69 27 -157 27 -92 -1 -105 -3 -167 -33 -183 -89 -262
-266 -212 -478 8 -37 23 -83 34 -103 26 -52 92 -124 135 -146 l36 -20 -8 -130
c-4 -71 -8 -271 -8 -443 l0 -312 -32 0 c-31 0 -33 2 -33 38 -1 20 -7 140 -14
266 l-13 229 23 34 c44 65 45 197 3 280 -37 70 -100 107 -194 111 -85 5 -146
-19 -196 -76 -44 -50 -59 -92 -59 -164 0 -101 65 -209 140 -233 19 -6 21 -12
16 -44 -3 -20 -6 -66 -6 -104 0 -65 -1 -67 -23 -63 -13 2 -41 13 -63 25 -21
12 -57 21 -79 21 -54 0 -143 44 -156 77 -5 13 -9 63 -9 111 l1 87 40 28 c97
67 119 236 42 327 -87 104 -258 95 -338 -19 -26 -36 -30 -52 -30 -104 0 -102
41 -177 112 -209 l45 -20 -4 -120 c-3 -105 -5 -121 -22 -134 -29 -20 -35 -122
-11 -175 33 -71 61 -80 237 -77 128 2 158 0 185 -15 76 -41 91 -105 74 -324
-8 -116 -13 -139 -38 -184 -40 -75 -57 -80 -313 -91 -209 -9 -217 -10 -276
-39 -49 -23 -74 -29 -122 -28 -69 2 -104 -15 -163 -78 -57 -61 -69 -84 -69
-136 0 -74 19 -132 56 -176 49 -56 104 -75 196 -67 40 4 89 7 108 7 19 0 233
-3 475 -6 417 -6 444 -5 513 13 l73 20 -3 -36 -3 -37 -105 -12 c-291 -34 -467
-132 -607 -338 -124 -184 -147 -301 -141 -720 5 -305 9 -329 83 -481 60 -123
122 -203 213 -271 71 -54 192 -110 273 -127 22 -5 27 -13 32 -48 18 -131 88
-270 197 -396 146 -167 297 -264 495 -317 97 -27 105 -27 280 -21 99 4 200 12
225 17 25 5 59 12 76 15 l32 6 11 -67 c21 -117 47 -168 164 -317 81 -103 177
-169 275 -188 98 -20 240 11 322 70 l29 20 6 -57 c8 -71 51 -167 94 -209 60
-61 192 -72 284 -26 l56 28 32 -63 c59 -116 192 -215 330 -244 31 -7 92 -9
145 -6 77 4 102 11 167 41 74 35 154 101 190 157 10 15 26 49 35 77 l18 51 49
-32 c47 -30 54 -32 145 -31 104 0 132 10 195 66 51 44 75 98 82 179 7 80 4 79
106 26 81 -41 196 -53 270 -28 101 35 152 66 218 131 114 113 179 229 195 350
9 69 11 70 79 55 108 -24 311 -28 422 -10 117 20 280 82 395 151 94 56 224
179 287 272 56 83 117 212 132 278 7 30 17 58 23 62 6 5 40 19 76 32 86 30
184 88 250 147 128 115 230 342 241 533 8 145 0 513 -12 564 -55 238 -142 383
-302 509 -50 39 -241 124 -307 137 -30 6 -71 14 -90 18 -26 5 -35 12 -35 27 0
22 22 27 181 39 88 7 92 6 121 -18 50 -42 105 -48 456 -44 369 3 352 0 413 90
35 52 48 118 33 171 -13 48 -73 119 -112 134 -22 8 -132 12 -362 12 l-330 1
-50 -30 c-27 -17 -61 -39 -75 -50 -21 -17 -30 -19 -60 -10 -19 5 -49 10 -66
10 -47 0 -96 20 -90 36 3 9 -7 22 -27 34 -17 11 -28 20 -23 20 6 0 5 5 -1 11
-7 7 -61 11 -145 12 -141 0 -162 5 -220 50 -36 27 -106 133 -95 143 3 3 27
-18 53 -46 76 -81 80 -82 303 -85 167 -2 196 -4 206 -18 15 -20 106 -62 155
-70 40 -8 124 12 164 38 15 10 41 41 57 69 61 106 26 249 -75 311 -44 27 -57
30 -123 28 -62 -1 -81 -6 -114 -28 -44 -29 -99 -107 -99 -141 0 -12 -7 -38
-15 -57 -19 -45 -44 -51 -203 -45 -197 8 -205 20 -210 277 l-4 175 38 -34 c58
-50 118 -73 173 -66 25 3 132 12 236 20 105 8 204 18 220 21 27 6 32 2 60 -42
16 -26 55 -73 86 -104 77 -76 144 -103 255 -101 117 1 182 28 261 108 77 78
110 141 123 235 24 167 -59 308 -227 387 -51 24 -70 27 -158 27 -89 0 -106 -3
-155 -27 -69 -34 -131 -94 -186 -180 -46 -71 -44 -71 -109 -43 -20 8 -106 15
-250 18 -247 7 -253 5 -325 -64 l-40 -39 0 35 c0 20 7 51 15 71 24 59 51 64
322 64 252 1 314 8 352 43 37 34 79 106 74 125 -2 9 -19 25 -38 34 -32 16 -34
16 -51 -3 -10 -11 -33 -29 -52 -41 -32 -20 -53 -22 -301 -28 -163 -4 -277 -11
-294 -18 -44 -18 -94 -60 -137 -115 l-40 -50 0 -136 c1 -240 17 -502 34 -550
19 -51 20 -65 6 -56 -5 3 -10 1 -10 -6 0 -24 -28 11 -50 64 -26 60 -39 216
-40 493 0 237 18 290 126 365 83 57 106 60 385 64 356 6 389 18 388 145 l0 55
-17 -32 c-36 -68 -37 -68 -333 -64 -227 2 -276 1 -325 -14 -67 -19 -130 -53
-192 -103 -24 -19 -45 -33 -47 -31 -6 7 -44 165 -65 270 -11 57 -31 138 -45
179 -68 209 -73 245 -79 540 -3 151 -8 284 -11 295 -5 17 7 28 82 70 114 63
265 141 328 168 88 38 166 88 186 120 22 38 25 106 5 145 -23 45 -93 88 -218
136 -115 43 -665 294 -913 416 -188 92 -376 179 -494 226 -46 19 -89 38 -95
43 -26 21 -826 390 -899 415 -56 19 -105 19 -167 1z m186 -146 c93 -39 191
-84 584 -269 91 -43 235 -109 320 -148 311 -141 551 -253 855 -397 171 -81
355 -165 410 -187 154 -61 236 -100 232 -112 -2 -5 -62 -35 -133 -66 -165 -72
-282 -132 -362 -183 -60 -38 -64 -39 -102 -28 -43 13 -51 25 -22 34 9 3 85 42
167 87 83 44 183 97 223 118 39 20 72 39 72 43 0 3 -15 10 -32 16 -18 6 -59
22 -90 37 -32 14 -58 23 -58 21 0 -3 20 -14 45 -25 52 -22 61 -34 13 -16 -77
29 -169 76 -164 85 3 5 -3 11 -14 14 -11 3 -18 1 -14 -4 9 -14 -15 -10 -41 7
-14 9 -22 21 -18 28 4 8 3 8 -6 0 -13 -12 -54 -7 -46 5 2 4 -2 8 -10 8 -8 0
-15 -3 -15 -7 0 -4 -12 -12 -27 -18 -27 -12 -27 -11 -6 4 17 12 19 19 11 28
-16 17 -71 8 -64 -10 3 -9 -2 -14 -14 -14 -11 0 -20 -4 -20 -10 0 -5 8 -7 18
-4 9 2 6 -1 -8 -8 -14 -7 -28 -16 -31 -21 -4 -5 -12 -1 -18 9 -10 18 -10 18
-11 -3 0 -12 6 -23 13 -26 6 -2 9 -8 4 -12 -4 -5 -14 0 -22 11 -12 16 -14 16
-15 3 0 -9 7 -22 15 -29 21 -17 19 -30 -4 -30 -23 0 -37 16 -19 22 9 3 8 9 -4
21 -17 17 -35 7 -23 -13 3 -5 2 -10 -4 -10 -5 0 -12 10 -14 23 -3 13 -5 8 -6
-15 -1 -29 -5 -38 -18 -38 -20 -1 -64 -30 -45 -30 20 0 14 -18 -8 -25 -11 -3
-20 -11 -20 -17 0 -6 3 -9 6 -5 4 3 14 -1 23 -10 11 -12 13 -17 3 -21 -6 -2
-12 -10 -12 -18 0 -9 5 -12 12 -8 7 5 8 3 4 -5 -5 -7 -18 -17 -30 -22 -21 -9
-21 -10 2 -5 14 3 22 -1 22 -9 0 -12 -7 -11 -42 1 -24 9 -128 40 -232 70 -103
30 -265 84 -360 119 -94 35 -269 98 -389 139 -203 70 -220 78 -265 121 -26 25
-72 58 -102 73 -48 23 -67 26 -155 27 -93 0 -105 -2 -167 -33 -128 -62 -192
-168 -192 -314 0 -56 6 -78 37 -140 22 -45 48 -81 66 -93 20 -13 26 -22 18
-27 -8 -5 -7 -8 5 -8 9 0 23 -6 30 -13 28 -27 142 -57 214 -57 84 0 190 29
231 64 38 31 67 46 93 46 11 0 62 -21 113 -46 51 -25 119 -56 152 -69 33 -12
89 -36 125 -52 36 -17 73 -33 83 -36 9 -4 17 -10 16 -14 -4 -26 3 -43 19 -43
14 0 12 -4 -8 -20 -15 -12 -18 -18 -7 -14 9 3 17 2 17 -4 0 -5 -9 -12 -20 -15
-11 -3 -20 -10 -20 -16 0 -6 9 -19 20 -28 11 -10 20 -21 20 -26 0 -5 -7 -1
-16 7 -8 9 -19 14 -24 11 -5 -3 -10 0 -12 5 -2 7 -11 5 -23 -4 -14 -10 -16
-14 -5 -14 32 2 53 -2 46 -9 -14 -14 -66 -11 -66 3 0 8 -5 14 -11 14 -5 0 -8
4 -5 9 9 15 -5 41 -21 41 -12 0 -13 -3 -4 -14 9 -11 9 -16 0 -22 -7 -4 -14 -3
-17 4 -2 6 -9 9 -17 6 -18 -7 -7 -33 19 -45 19 -8 18 -9 -6 -6 -31 5 -48 -24
-29 -47 13 -16 4 -27 -16 -19 -12 5 -12 7 -1 14 10 7 10 9 0 9 -10 0 -10 5 -2
20 6 11 8 20 5 20 -3 0 -8 0 -12 0 -5 0 -8 -4 -8 -10 0 -14 -41 -41 -49 -32
-4 3 -12 0 -17 -8 -8 -11 -12 -12 -16 -2 -7 18 -26 15 -19 -3 3 -10 -1 -18
-11 -22 -15 -6 -14 -7 3 -15 19 -8 19 -8 -1 -5 -11 1 -22 13 -26 27 -6 22 -7
21 -8 -10 0 -19 -1 -51 -1 -70 l-1 -35 -14 33 c-8 17 -17 32 -20 32 -3 0 -3
-6 1 -12 5 -9 2 -9 -9 1 -15 12 -17 11 -17 -13 0 -14 -5 -26 -11 -26 -5 0 -7
5 -4 10 3 6 -3 10 -14 10 -12 0 -21 -6 -21 -12 0 -10 -2 -10 -8 -1 -8 12 -36
12 -48 0 -13 -13 -44 -7 -44 8 0 11 -5 12 -25 5 -14 -5 -32 -7 -40 -4 -8 4
-15 1 -15 -5 0 -6 17 -11 38 -12 20 0 30 -3 22 -6 -8 -3 -18 -11 -22 -17 -5
-7 -8 -7 -8 3 0 7 -6 11 -15 7 -8 -3 -15 -1 -15 4 0 5 -8 7 -17 4 -15 -5 -16
-4 -3 5 12 9 10 11 -12 11 -15 0 -29 -4 -32 -9 -5 -7 -23 -8 -43 -2 -2 1 -6 1
-10 0 -4 0 -10 7 -13 17 -4 11 -9 14 -13 7 -4 -6 0 -19 9 -27 14 -15 14 -16
-5 -16 -12 0 -21 6 -21 13 0 9 -3 8 -9 -2 -5 -7 -13 -11 -19 -7 -6 3 -13 -2
-15 -11 -4 -14 -5 -13 -6 5 -1 14 -7 22 -18 22 -14 0 -15 -2 -4 -9 15 -10 7
-31 -12 -31 -7 0 -20 -17 -29 -37 -9 -21 -17 -30 -17 -20 -1 9 -6 17 -12 17
-6 0 -8 -13 -5 -30 2 -17 0 -28 -5 -24 -5 3 -9 0 -9 -5 0 -6 6 -11 13 -11 8 0
7 -3 -3 -10 -11 -7 -17 -5 -22 8 -5 12 -7 13 -7 3 -1 -8 -8 -23 -18 -33 -13
-15 -14 -18 -2 -18 8 0 20 5 27 12 8 8 12 8 12 1 0 -6 -7 -16 -15 -23 -24 -20
-17 -32 14 -27 20 4 31 0 35 -10 3 -8 1 -11 -4 -8 -6 3 -15 -6 -20 -20 -7 -17
-14 -24 -22 -18 -7 4 -21 6 -32 4 -12 -2 -16 1 -11 10 6 8 4 10 -4 4 -7 -4 -9
-10 -4 -14 14 -12 152 -71 167 -71 7 0 98 39 202 86 104 47 275 124 379 171
105 47 296 134 425 195 129 61 274 126 322 144 81 32 168 45 168 26 0 -8 -152
-83 -265 -132 -27 -12 -115 -52 -195 -90 -80 -37 -192 -89 -250 -115 -58 -26
-109 -51 -115 -55 -5 -5 -58 -29 -117 -54 -59 -25 -167 -75 -240 -110 -201
-96 -266 -125 -303 -132 -28 -5 -58 5 -172 56 -76 34 -167 77 -203 94 -117 58
-181 80 -189 67 -6 -9 -22 -5 -62 15 -30 15 -55 31 -57 35 -2 4 -10 5 -19 2
-9 -4 -14 -2 -10 3 3 5 -8 16 -24 23 -17 7 -26 17 -22 24 3 7 3 9 -2 5 -4 -4
-21 2 -37 13 -16 12 -38 19 -48 16 -13 -3 -20 0 -20 8 0 7 -14 16 -31 20 -17
4 -57 20 -89 36 -33 16 -63 29 -69 29 -5 0 -16 9 -24 19 -14 22 -239 131 -267
131 -10 0 -20 3 -22 8 -9 20 -183 102 -217 102 -16 0 -31 6 -34 14 -3 8 -23
20 -44 26 -21 7 -41 17 -44 22 -4 6 -14 6 -28 -1 -14 -8 -21 -8 -21 -1 0 6
-11 8 -27 4 -27 -6 -27 -6 -8 9 20 16 19 16 -4 10 -18 -4 -22 -2 -19 8 3 8 16
13 29 11 19 -2 21 0 9 8 -8 5 -23 7 -32 4 -10 -3 -18 0 -18 6 0 6 -4 9 -10 5
-5 -3 -7 -12 -3 -20 6 -18 2 -18 -31 -4 -14 7 -23 16 -20 21 3 4 -3 11 -13 14
-33 11 -107 49 -122 62 -8 8 -17 10 -20 5 -9 -13 -31 -14 -29 -2 4 15 -55 21
-64 6 -5 -8 -8 -6 -8 6 0 18 -16 24 -22 7 -4 -12 -111 25 -116 40 -2 6 -8 8
-12 5 -13 -8 -233 92 -263 121 -15 14 -27 28 -27 32 0 16 133 94 233 137 57
24 214 97 348 161 270 128 439 207 694 324 417 190 514 234 735 338 278 130
511 229 546 231 7 1 56 -17 110 -40z m19 -839 c51 -22 70 -43 89 -102 17 -48
8 -104 -15 -96 -5 2 -31 -17 -57 -42 -61 -59 -116 -77 -168 -55 -23 10 -41 12
-47 6 -6 -6 -20 -5 -39 1 -16 6 -32 8 -35 4 -4 -3 -15 1 -25 11 -25 22 -24
123 1 178 22 49 80 95 141 111 51 14 97 10 155 -16z m380 -195 c88 -35 212
-83 275 -105 352 -124 443 -155 568 -191 204 -60 441 -139 493 -165 48 -24 87
-63 117 -118 14 -26 17 -59 16 -206 0 -110 -5 -192 -13 -220 -14 -50 -69 -110
-81 -89 -5 7 -8 103 -8 214 0 235 -6 256 -94 326 -68 53 -108 72 -193 92 -257
61 -329 81 -405 112 -46 19 -91 35 -100 35 -9 0 -20 4 -26 9 -5 5 -38 18 -74
29 -164 51 -538 189 -610 225 -43 21 -45 24 -48 70 -2 33 1 47 9 47 7 0 85
-29 174 -65z m1290 19 c-8 -16 -15 -23 -15 -16 0 17 20 55 26 49 2 -2 -2 -17
-11 -33z m-95 -74 c0 -5 -4 -10 -10 -10 -5 0 -10 5 -10 10 0 6 5 10 10 10 6 0
10 -4 10 -10z m590 -10 c0 -5 -4 -10 -10 -10 -5 0 -10 5 -10 10 0 6 5 10 10
10 6 0 10 -4 10 -10z m-660 -30 c-8 -5 -11 -10 -7 -10 5 0 5 -5 2 -10 -4 -6
-11 -8 -16 -4 -12 7 8 34 25 34 6 0 4 -5 -4 -10z m-3 -146 c-3 -3 -12 -4 -19
-1 -8 3 -5 6 6 6 11 1 17 -2 13 -5z m-3607 -164 c0 -5 -2 -10 -4 -10 -3 0 -8
5 -11 10 -3 6 -1 10 4 10 6 0 11 -4 11 -10z m164 -75 c25 -19 9 -19 -24 0 -14
8 -19 14 -10 14 8 0 24 -6 34 -14z m2696 -105 c0 -5 -2 -10 -4 -10 -3 0 -8 5
-11 10 -3 6 -1 10 4 10 6 0 11 -4 11 -10z m50 -14 c0 -2 -7 -7 -16 -10 -8 -3
-12 -2 -9 4 6 10 25 14 25 6z m-155 -27 c12 -19 -3 -22 -27 -5 l-22 16 21 0
c12 0 25 -5 28 -11z m-3279 -60 c97 -46 153 -136 154 -245 0 -78 -7 -114 -29
-142 -16 -22 -18 -22 -54 -7 -46 19 -54 37 -58 145 -3 68 -1 84 10 82 16 -3
51 26 51 43 0 16 -23 25 -61 25 -20 0 -33 -8 -46 -27 -9 -16 -18 -30 -20 -32
-1 -2 -23 15 -48 38 -78 72 -117 53 -169 -82 -46 -119 -69 -196 -62 -212 6
-16 122 -26 266 -25 53 1 106 -3 118 -7 22 -9 22 -9 5 -28 -10 -11 -24 -20
-30 -20 -7 0 -12 -3 -10 -7 3 -10 -36 -37 -45 -32 -5 3 -8 1 -8 -4 0 -13 -55
-32 -92 -32 -64 0 -116 22 -172 72 -87 78 -122 168 -106 278 18 131 80 204
206 244 63 20 122 12 200 -25z m3324 31 c0 -5 -5 -10 -11 -10 -5 0 -7 5 -4 10
3 6 8 10 11 10 2 0 4 -4 4 -10z m-93 -20 c1 -16 -1 -17 -12 -7 -11 10 -8 19
10 27 1 0 1 -9 2 -20z m24 -3 c-10 -9 -11 -8 -5 6 3 10 9 15 12 12 3 -3 0 -11
-7 -18z m-92 -36 c11 -7 8 -11 -10 -17 -36 -12 -50 -13 -44 -4 3 5 -3 11 -12
13 -14 4 -13 5 5 6 12 0 22 -3 22 -9 0 -5 7 -7 16 -3 13 5 13 7 2 14 -7 5 -8
9 -3 9 6 0 16 -4 24 -9z m1106 -254 l-1 -252 -42 -145 c-39 -131 -58 -170 -85
-170 -11 0 -2 29 37 115 l31 70 3 305 c1 168 4 311 7 318 2 6 15 12 27 12 l23
0 0 -253z m-3260 161 c14 -6 25 -19 25 -29 0 -10 6 -24 14 -32 10 -10 12 -17
4 -25 -13 -13 2 -84 20 -90 6 -2 12 3 12 12 0 9 6 16 14 16 8 0 16 6 19 14 6
16 -11 36 -30 36 -7 0 -13 8 -13 17 0 12 13 3 41 -26 28 -31 37 -46 28 -52 -9
-5 -8 -11 5 -24 11 -12 14 -21 7 -29 -7 -9 5 -20 42 -43 65 -38 112 -51 104
-29 -4 10 -1 16 9 16 10 0 13 -7 8 -25 -4 -17 -2 -25 7 -25 7 0 21 -7 31 -17
12 -11 18 -12 18 -3 0 7 9 2 20 -11 10 -13 19 -18 20 -11 0 10 3 10 14 0 8 -7
12 -17 9 -22 -3 -4 5 -5 17 -1 15 5 20 3 16 -3 -3 -6 -1 -14 5 -18 6 -3 14 -1
18 5 5 8 16 4 34 -13 63 -59 319 -212 336 -202 5 3 8 -1 7 -9 -1 -15 157 -125
179 -125 8 0 20 -6 27 -13 7 -7 33 -23 58 -36 67 -34 104 -55 110 -63 8 -10
150 -73 209 -93 78 -26 160 -8 297 63 239 124 332 169 327 156 -3 -8 -14 -19
-24 -25 -11 -5 -19 -16 -19 -24 0 -8 -7 -15 -15 -15 -8 0 -15 -5 -15 -11 0 -5
-5 -7 -12 -3 -9 6 -9 9 0 12 7 2 12 8 12 13 0 6 -7 6 -19 0 -10 -6 -20 -9 -22
-8 -2 1 1 -2 6 -8 6 -5 10 -26 9 -45 -2 -23 0 -29 5 -17 6 17 8 16 19 -8 7
-14 17 -23 22 -20 6 3 10 2 10 -3 0 -9 -9 -13 -60 -29 -8 -2 -29 -5 -47 -6
-18 -2 -36 -6 -40 -11 -4 -5 3 -5 17 -1 24 7 24 7 9 -11 -9 -11 -14 -25 -11
-33 2 -8 0 -11 -5 -8 -6 4 -15 -5 -22 -19 -9 -20 -9 -25 1 -21 7 2 12 10 10
16 -1 7 2 10 7 7 11 -7 24 22 15 35 -3 5 4 9 15 9 26 0 26 -5 0 -31 -11 -11
-18 -27 -15 -35 3 -8 2 -13 -2 -10 -4 2 -14 1 -22 -4 -7 -5 -21 -3 -31 3 -14
9 -22 7 -37 -6 -10 -9 -31 -17 -45 -17 -17 0 -27 -5 -27 -15 0 -14 -11 -19
-37 -16 -7 1 -13 -2 -13 -7 0 -5 -6 -9 -12 -10 -34 -2 -95 -15 -113 -22 -11
-5 -33 -11 -50 -13 -16 -2 5 -5 48 -6 60 -1 76 2 71 12 -6 9 -4 9 7 1 13 -11
87 -6 158 10 268 60 364 88 514 151 176 74 215 92 257 119 19 13 73 47 120 77
114 73 214 160 255 222 52 79 67 161 71 377 2 102 3 189 3 193 1 5 11 7 23 5
17 -2 24 -13 31 -43 12 -53 2 -385 -13 -455 -18 -84 -75 -183 -144 -250 -53
-53 -86 -73 -86 -54 0 12 35 64 43 64 4 0 5 5 2 10 -3 6 -1 10 6 10 7 0 9 3 6
7 -4 3 -16 -3 -27 -14 -47 -51 -377 -253 -413 -253 -5 0 -37 -13 -71 -29 -94
-45 -180 -84 -191 -86 -5 -2 -39 -12 -75 -23 -135 -41 -177 -52 -198 -52 -11
0 -24 -4 -27 -10 -3 -5 2 -10 11 -10 23 0 12 -10 -17 -15 -13 -3 -44 -11 -69
-19 -41 -14 -42 -15 -10 -11 l35 4 -33 -11 c-26 -9 -35 -9 -41 1 -6 10 -11 9
-22 -2 -17 -17 -189 -24 -189 -8 0 5 10 12 23 14 12 2 2 4 -23 4 -25 1 -37 -1
-27 -4 24 -6 16 -26 -11 -28 -15 -1 -22 4 -22 16 0 13 -5 16 -22 11 -19 -5
-20 -7 -5 -10 9 -2 17 -8 17 -14 0 -7 -46 -9 -142 -5 -111 4 -172 12 -273 36
-71 17 -139 35 -150 40 -11 5 -49 19 -85 32 -88 31 -321 129 -400 169 -169 85
-344 227 -399 324 -51 89 -59 139 -65 414 -4 161 -3 252 3 252 6 0 22 -5 36
-12z m1955 -24 c0 -2 -9 -4 -20 -4 -11 0 -20 4 -20 9 0 5 9 7 20 4 11 -3 20
-7 20 -9z m-3041 -134 c23 -45 41 -83 41 -86 0 -2 -13 -4 -30 -4 -20 0 -30 5
-30 15 0 12 -13 15 -55 15 -42 0 -55 -3 -55 -15 0 -9 -9 -15 -25 -15 -14 0
-25 2 -25 5 0 11 65 161 83 193 l20 33 18 -29 c9 -17 36 -67 58 -112z m2581
80 c0 -5 -2 -10 -4 -10 -3 0 -8 5 -11 10 -3 6 -1 10 4 10 6 0 11 -4 11 -10z
m30 -4 c0 -3 -4 -8 -10 -11 -5 -3 -10 -1 -10 4 0 6 5 11 10 11 6 0 10 -2 10
-4z m-1435 -54 c-7 -8 -45 20 -45 33 0 9 7 7 24 -8 14 -12 23 -23 21 -25z
m-509 -117 c39 -23 84 -78 84 -102 0 -6 -10 -10 -22 -9 -17 1 -24 -5 -26 -24
-6 -54 -14 -71 -45 -101 -31 -30 -34 -31 -110 -27 -72 3 -81 6 -103 31 -40 46
-31 142 19 196 60 65 131 78 203 36z m254 -182 c0 -5 6 -47 14 -94 16 -99 43
-166 89 -224 l32 -40 0 -560 0 -560 27 -57 c15 -32 48 -81 75 -109 41 -44 304
-275 379 -332 24 -19 56 -65 36 -53 -5 3 -15 -1 -22 -10 -9 -10 -22 -13 -42
-9 -17 4 -28 2 -28 -4 0 -24 -38 -8 -102 42 -36 28 -106 81 -155 117 -175 129
-235 201 -278 340 -15 49 -17 110 -15 590 1 551 -7 734 -37 798 -14 29 -14 43
-4 103 7 38 17 69 22 69 5 0 9 -3 9 -7z m3602 -58 c2 2 17 1 34 -4 26 -6 30
-13 34 -53 3 -26 3 -45 -1 -42 -8 5 -8 3 -13 -208 -2 -92 -9 -196 -15 -230 -6
-35 -16 -92 -22 -128 -6 -36 -15 -70 -21 -77 -5 -7 -7 -17 -3 -23 4 -6 -8 -24
-26 -39 -44 -39 -32 -54 38 -45 41 5 54 4 49 -5 -4 -6 -16 -11 -26 -11 -10 0
-21 -4 -24 -9 -7 -11 -73 -3 -105 13 -60 32 -120 128 -121 193 0 18 7 50 15
70 23 60 91 365 116 522 7 49 18 80 32 94 l20 20 17 -21 c10 -12 19 -19 22
-17z m-5482 -11 c36 -31 60 -73 60 -107 0 -37 -41 -91 -80 -104 -30 -9 -40 -8
-73 10 -47 26 -67 62 -67 118 0 33 6 47 34 75 42 42 82 45 126 8z m540 -89
c46 -45 63 -101 37 -120 -9 -7 -13 -16 -9 -20 4 -5 -1 -5 -10 -2 -12 4 -18 1
-18 -8 0 -35 -120 -61 -148 -33 -10 10 -15 10 -21 -1 -13 -21 -48 3 -61 43
-17 53 -3 103 43 149 38 38 41 39 94 35 46 -4 59 -10 93 -43z m336 -110 c0
-77 4 -153 7 -170 8 -39 16 -133 22 -265 6 -138 24 -198 74 -243 22 -19 49
-40 60 -47 17 -9 19 -15 11 -30 -15 -28 -76 -26 -153 6 -105 43 -99 20 -93
383 4 174 6 360 6 414 l0 98 33 -3 32 -3 1 -140z m900 -448 c-6 -484 -9 -558
-23 -580 -25 -41 -39 127 -53 663 l-10 365 38 32 c20 18 41 33 46 33 6 0 6
-206 2 -513z m-236 436 c3 -2 4 -81 2 -174 -2 -93 -4 -491 -5 -884 -2 -624 -4
-717 -17 -725 -28 -18 -38 -10 -44 33 -8 53 -7 1548 1 1675 l6 93 26 -6 c14
-4 28 -9 31 -12z m3591 -72 c-7 -5 -9 -15 -5 -26 5 -13 4 -16 -5 -10 -10 6
-11 2 -6 -16 4 -13 12 -25 16 -27 13 -5 10 -69 -6 -137 -17 -69 -19 -152 -5
-212 6 -24 14 -73 20 -110 7 -53 14 -71 35 -89 l27 -23 -5 -198 c-5 -185 -22
-342 -39 -359 -5 -4 -8 -18 -8 -31 0 -16 -6 -23 -18 -23 -26 0 -33 10 -21 31
5 11 7 19 5 19 -3 0 -15 -19 -27 -41 -11 -23 -47 -68 -78 -101 -32 -32 -51
-56 -43 -53 10 4 13 0 8 -12 -6 -17 -5 -17 8 0 7 9 19 17 26 17 7 0 1 -10 -14
-21 -20 -16 -30 -19 -39 -10 -6 6 -16 11 -21 11 -6 0 -5 -4 2 -8 10 -7 8 -13
-6 -30 -14 -16 -22 -18 -30 -10 -9 9 -12 9 -12 -2 0 -7 -3 -11 -6 -7 -8 8 -33
-16 -27 -25 2 -5 -3 -8 -11 -8 -9 0 -16 -5 -16 -11 0 -5 -4 -8 -8 -5 -5 3 -46
-25 -92 -62 -150 -121 -158 -127 -200 -127 -82 0 -74 9 170 200 214 168 254
202 299 264 78 104 76 90 72 678 l-3 521 33 42 c18 23 35 36 37 30 3 -7 -1
-16 -7 -19z m-1017 7 c-3 -4 -9 -8 -15 -8 -5 0 -9 4 -9 8 0 5 7 9 15 9 8 0 12
-4 9 -9z m-60 -50 c-1 -13 -3 -27 -3 -32 -1 -6 -8 -1 -16 10 -16 22 -20 38 -6
29 5 -3 12 -1 16 5 9 15 12 12 9 -12z m64 -13 l27 -7 -25 -13 c-33 -19 -60
-19 -60 0 0 8 5 15 10 15 6 0 11 10 11 23 1 15 3 17 6 5 2 -9 16 -19 31 -23z
m-18 -97 c0 -6 -6 -5 -15 2 -8 7 -15 14 -15 16 0 2 7 1 15 -2 8 -4 15 -11 15
-16z m-40 2 c0 -5 -2 -10 -4 -10 -3 0 -8 5 -11 10 -3 6 -1 10 4 10 6 0 11 -4
11 -10z m-3486 -25 c10 -43 8 -674 -3 -770 -15 -141 -71 -244 -173 -321 -22
-17 -58 -35 -58 -30 0 3 -11 -5 -25 -18 -35 -32 -50 -34 -297 -36 l-217 -1
-29 43 c-17 24 -40 51 -53 62 -20 17 -21 19 -5 28 9 5 123 8 269 6 245 -3 253
-2 298 20 60 29 117 86 142 142 19 40 22 73 28 325 4 154 8 346 8 427 l1 146
54 -1 c46 -1 56 -4 60 -22z m1689 -47 c17 -13 41 -28 52 -33 19 -10 20 -21 23
-207 l2 -196 -65 1 -65 2 0 228 c0 158 3 227 11 227 6 0 25 -10 42 -22z
m-1006 -27 c45 -23 81 -74 76 -108 -3 -15 -24 -55 -47 -88 -46 -65 -84 -87
-116 -67 -13 8 -21 8 -25 1 -5 -7 -11 -6 -21 2 -8 6 -14 8 -14 5 0 -15 -43 18
-60 47 -46 75 -14 172 70 215 49 24 79 23 137 -7z m2728 19 c3 -6 -1 -7 -9 -4
-18 7 -21 14 -7 14 6 0 13 -4 16 -10z m-95 -40 c0 -5 -5 -10 -11 -10 -5 0 -7
5 -4 10 3 6 8 10 11 10 2 0 4 -4 4 -10z m490 -14 c0 -11 -19 -15 -25 -6 -3 5
1 10 9 10 9 0 16 -2 16 -4z m445 -57 c11 -1 26 -2 33 -2 9 1 12 -38 12 -159 0
-103 -3 -157 -10 -153 -5 3 -10 16 -10 28 -1 21 -2 21 -23 -5 -14 -17 -33 -28
-48 -28 -25 0 -26 2 -32 79 -6 76 -1 231 9 280 5 24 5 24 27 -7 12 -18 31 -32
42 -33z m-975 41 c0 -5 -7 -10 -16 -10 -8 0 -12 5 -9 10 3 6 10 10 16 10 5 0
9 -4 9 -10z m3383 -30 c53 -20 114 -73 137 -120 l12 -25 -21 23 c-24 25 -59
28 -127 11 -35 -9 -50 -8 -76 4 -65 29 -72 29 -114 -7 -72 -61 -91 -100 -98
-198 -7 -100 -13 -93 99 -105 116 -13 237 -9 270 7 24 12 30 22 31 50 1 76 16
190 25 196 15 9 39 -61 39 -113 0 -150 -127 -283 -270 -283 -105 0 -198 65
-260 182 -41 76 -43 142 -8 220 70 152 211 214 361 158z m-3168 -30 c3 -5 1
-10 -4 -10 -6 0 -11 5 -11 10 0 6 2 10 4 10 3 0 8 -4 11 -10z m65 -4 c0 -2
-11 -6 -25 -8 -14 -3 -25 -1 -25 3 0 5 11 9 25 9 14 0 25 -2 25 -4z m-1510
-34 l55 -27 5 -255 5 -255 27 -47 c35 -59 80 -97 242 -206 172 -115 259 -189
325 -275 51 -68 59 -83 76 -136 5 -18 4 -22 -6 -16 -9 6 -11 2 -6 -16 4 -13 7
-30 7 -37 0 -7 5 -10 10 -7 6 3 10 -3 10 -14 0 -11 -10 -25 -21 -32 -34 -18
-64 3 -99 70 -51 96 -203 233 -356 324 -165 97 -259 185 -313 292 -17 34 -23
73 -31 191 -11 172 -13 458 -3 467 9 10 12 9 73 -21z m1830 -60 c14 -2 40 -18
58 -37 l32 -35 0 -132 c-1 -208 -15 -330 -43 -375 -13 -21 -26 -46 -30 -55 -3
-10 -14 -18 -23 -18 -10 0 -15 -3 -11 -6 8 -8 -44 -64 -60 -64 -7 0 -13 -4
-13 -9 0 -5 -17 -20 -37 -33 -50 -31 -64 -40 -93 -60 -14 -9 -43 -24 -65 -33
-42 -17 -42 -15 22 31 13 9 20 20 17 25 -3 5 1 9 9 9 7 0 26 14 42 30 36 38
85 64 86 47 0 -7 5 -2 11 10 6 13 19 25 29 28 11 4 19 14 19 23 0 15 2 15 10
2 6 -10 10 -11 10 -3 0 7 12 37 26 68 15 31 24 58 22 61 -3 3 -12 -13 -21 -34
-20 -49 -103 -125 -198 -182 -103 -61 -149 -98 -149 -121 0 -10 -4 -19 -9 -19
-5 0 -11 -9 -14 -19 -3 -13 -13 -19 -27 -18 -16 1 -20 6 -16 20 4 18 3 18 -18
-2 -12 -11 -27 -21 -33 -21 -6 0 -14 -7 -17 -16 -4 -10 -2 -13 6 -8 7 4 8 3 4
-4 -4 -7 -16 -12 -26 -12 -23 0 -132 -99 -110 -100 48 -1 43 -18 -33 -113 -74
-92 -77 -95 -102 -84 -23 11 -26 16 -21 49 10 62 45 145 84 197 63 84 200 188
475 361 44 28 85 64 115 104 l47 61 -3 208 c-4 199 4 329 17 297 3 -8 17 -16
31 -18z m2721 -130 c17 -34 33 -78 36 -97 5 -30 3 -35 -15 -35 -13 0 -24 10
-31 31 -10 29 -12 30 -63 27 -46 -3 -53 -6 -56 -25 -2 -15 -10 -23 -23 -23
-28 0 -25 44 12 131 17 41 35 85 41 99 l9 25 30 -35 c16 -19 43 -63 60 -98z
m147 1 c-3 -110 -4 -118 -23 -118 -19 0 -20 8 -23 118 l-3 117 26 0 26 0 -3
-117z m-4402 29 c5 -27 10 -33 25 -29 11 3 22 1 25 -5 4 -5 10 -65 14 -134 4
-78 12 -129 20 -139 20 -24 91 -58 100 -48 14 14 30 112 31 181 0 104 11 147
34 145 11 -1 79 -7 150 -13 72 -7 134 -15 139 -20 5 -5 -10 -21 -34 -37 -132
-89 -164 -139 -164 -263 -1 -74 3 -92 27 -138 47 -90 87 -126 168 -152 81 -25
143 -22 217 10 175 78 224 264 119 449 -41 73 -106 121 -162 121 -14 0 -25 5
-25 10 0 13 70 13 90 0 9 -5 19 -5 27 2 10 8 13 6 13 -6 0 -9 5 -16 12 -16 6
0 8 3 5 6 -10 10 12 44 28 44 9 0 15 -9 15 -21 0 -12 15 -36 34 -54 37 -35 46
-62 47 -145 1 -74 16 -107 54 -115 39 -10 62 -7 103 12 64 30 80 80 83 256 0
64 5 119 9 122 4 2 15 -13 25 -35 14 -32 23 -39 49 -42 l31 -3 1 -105 c1 -120
-2 -133 -27 -127 -11 3 -17 1 -14 -3 5 -8 -27 -75 -45 -94 -5 -5 -6 -14 -3
-21 2 -8 -5 -18 -16 -25 -12 -6 -21 -19 -21 -29 0 -12 -21 -29 -62 -51 -35
-18 -110 -68 -168 -110 -129 -95 -177 -120 -230 -120 -37 0 -40 -2 -41 -27 0
-16 -2 -37 -4 -48 -1 -11 -6 -57 -10 -102 -4 -46 -12 -83 -16 -83 -5 0 -9 -8
-9 -18 0 -10 -3 -22 -7 -25 -4 -4 -8 -26 -11 -49 -4 -49 -16 -68 -43 -68 -18
0 -19 11 -19 214 0 236 3 226 -66 226 -46 0 -96 26 -200 106 -48 36 -123 83
-168 104 -87 40 -111 63 -162 160 -28 54 -29 58 -29 215 0 88 3 168 7 178 11
27 46 0 54 -41z m3781 18 l44 0 -3 -37 c-3 -35 -6 -38 -48 -51 -25 -7 -103
-16 -175 -18 -128 -4 -130 -4 -137 18 l-6 23 -7 -22 c-7 -23 -32 -31 -92 -29
-25 1 -37 5 -35 14 2 12 -10 16 -35 13 -17 -2 -16 41 1 65 12 16 31 20 143 25
70 4 168 5 217 3 49 -2 109 -4 133 -4z m-5451 -135 c13 -8 24 -29 27 -52 4
-21 6 -195 5 -388 0 -192 -4 -332 -7 -310 l-6 40 -13 -59 c-6 -33 -12 -88 -12
-124 0 -36 -5 -82 -12 -103 -9 -33 -15 -39 -40 -39 l-28 0 0 531 0 531 33 -7
c17 -4 41 -13 53 -20z m4516 -212 c-3 -165 0 -232 14 -321 l18 -113 -34 -33
c-19 -19 -49 -37 -67 -41 -31 -6 -32 -6 -37 37 -3 24 -8 104 -11 178 -6 130
-27 318 -40 351 -4 12 11 29 57 62 35 24 72 54 82 66 11 11 20 21 20 21 1 0
-1 -93 -2 -207z m-4910 129 c75 -37 129 -86 160 -145 19 -36 23 -61 26 -179 4
-131 3 -138 -16 -138 -17 0 -20 -10 -25 -107 -4 -58 -7 -150 -7 -205 0 -59 -4
-98 -10 -98 -5 0 -10 -13 -10 -29 0 -42 -9 -61 -30 -61 -28 0 -32 57 -28 410
3 353 5 344 -71 413 -47 42 -93 57 -179 57 l-62 0 2 53 c1 28 7 56 12 60 6 4
48 6 93 4 66 -3 93 -9 145 -35z m2764 -21 c77 -47 113 -136 75 -189 -11 -16
-17 -32 -14 -36 4 -4 0 -4 -10 0 -10 3 -17 1 -17 -6 0 -6 -5 -8 -11 -4 -6 3
-7 9 -3 13 5 3 10 13 12 21 2 9 -8 4 -25 -12 -16 -15 -43 -33 -61 -39 -23 -8
-32 -17 -32 -34 0 -79 -134 3 -161 98 -19 71 14 144 86 188 40 25 120 25 161
0z m-1255 -14 c49 -33 83 -98 74 -143 -4 -25 -10 -34 -21 -30 -8 3 -14 2 -15
-2 -2 -17 -10 -56 -12 -57 -69 -41 -99 -55 -114 -54 -16 0 -16 1 2 9 22 9 20
11 -12 15 -13 1 -20 -2 -16 -8 12 -20 -52 5 -80 31 -53 50 -57 150 -9 206 52
59 142 74 203 33z m2544 -17 c45 -44 69 -94 56 -118 -11 -18 -11 -18 -11 23 0
3 -8 13 -17 23 -17 16 -18 15 -24 -40 -8 -79 -27 -98 -98 -100 l-56 -2 48 -3
c47 -4 52 -8 41 -37 -8 -21 -61 -21 -111 -1 -118 47 -113 234 7 284 14 6 49 9
78 8 44 -3 58 -9 87 -37z m606 -38 c13 -5 16 -17 13 -52 -9 -103 -22 -467 -23
-632 -1 -170 -2 -177 -22 -183 -12 -4 -25 -3 -29 2 -6 6 -17 813 -11 861 1 13
45 15 72 4z m1256 -117 c32 -23 66 -83 65 -117 0 -17 -11 -42 -24 -56 -13 -14
-16 -22 -8 -18 8 4 0 -6 -18 -23 -18 -17 -41 -31 -53 -31 -52 0 -124 66 -135
124 -16 89 102 171 173 121z m-6037 -23 c32 -16 35 -21 36 -62 0 -25 4 -100 8
-166 9 -126 4 -174 -17 -174 -6 0 -25 -21 -42 -47 -21 -32 -46 -54 -81 -72
-42 -21 -49 -28 -38 -39 15 -14 38 -17 30 -3 -3 5 0 14 7 20 11 8 13 6 12 -12
-2 -28 28 -25 -468 -32 l-398 -5 7 52 c4 29 8 54 9 55 1 2 172 6 381 9 427 7
441 9 484 78 24 40 24 56 0 201 -12 68 -9 182 4 204 10 15 25 14 66 -7z m57
-184 c-3 -8 -6 -5 -6 6 -1 11 2 17 5 13 3 -3 4 -12 1 -19z m-155 -58 c-4 -67
-5 -71 -43 -104 -43 -36 -78 -48 -120 -39 -25 5 -24 6 33 61 33 31 73 78 90
104 17 26 34 48 37 48 3 0 5 -31 3 -70z m1815 37 c23 -17 68 -53 100 -78 32
-25 103 -76 158 -114 193 -133 365 -274 365 -301 0 -5 -14 -11 -31 -12 -17 -1
-41 -9 -52 -17 -32 -23 -48 -19 -102 26 -28 23 -99 75 -160 116 -133 89 -356
252 -391 284 -26 24 -54 70 -54 88 0 6 26 11 58 13 39 2 56 7 55 16 -4 19 9
14 54 -21z m2292 9 c30 -16 39 -25 29 -29 -9 -3 -25 -25 -37 -50 -12 -24 -30
-52 -41 -62 -17 -15 -21 -15 -39 -3 -12 8 -18 17 -15 21 3 3 -4 3 -15 0 -16
-4 -19 -9 -11 -18 13 -15 1 -28 -15 -15 -8 6 -22 0 -46 -21 -19 -17 -29 -28
-22 -25 7 4 9 -1 6 -15 -6 -21 -7 -21 -20 -4 -7 11 -14 16 -14 12 -5 -25 -3
-33 11 -39 9 -4 4 -6 -13 -5 -17 1 -26 6 -23 14 3 7 -1 10 -10 6 -17 -6 -18
-15 -1 -32 10 -11 9 -13 -4 -8 -9 3 -27 -2 -40 -11 -20 -14 -22 -14 -17 0 5
12 2 14 -13 11 -23 -6 -25 -19 -3 -27 8 -3 12 -11 8 -17 -5 -9 -11 -7 -20 6
-12 17 -15 16 -51 -5 -21 -12 -80 -52 -131 -89 -157 -111 -177 -123 -208 -119
-29 4 -28 5 46 77 46 45 149 122 270 203 203 136 327 225 349 252 18 21 37 20
90 -8z m-611 -120 c-7 -8 -15 -12 -17 -11 -5 6 10 25 20 25 5 0 4 -6 -3 -14z
m-4476 -23 c55 -63 69 -164 29 -207 -44 -47 -125 -37 -170 20 -20 25 -22 38
-19 88 4 51 9 63 36 87 38 34 99 40 124 12z m4988 -28 c-7 -9 -15 -13 -17 -11
-7 7 7 26 19 26 6 0 6 -6 -2 -15z m-601 -31 c22 14 11 -6 -19 -34 -39 -37 -65
-47 -47 -20 6 11 18 20 25 20 7 0 12 8 11 18 -3 29 1 38 10 23 5 -7 14 -10 20
-7z m1001 12 c0 -2 -7 -7 -16 -10 -8 -3 -12 -2 -9 4 6 10 25 14 25 6z m1920
-131 l0 -105 -27 -2 c-57 -4 -73 1 -103 32 -35 35 -40 82 -14 131 18 35 43 47
102 48 l42 1 0 -105z m250 -5 l0 -110 -65 0 -65 0 0 110 0 110 65 0 65 0 0
-110z m222 0 c-2 -66 -8 -107 -15 -112 -7 -4 -28 -8 -48 -8 l-36 0 -7 53 c-8
70 -8 162 1 171 4 4 30 6 58 4 l50 -3 -3 -105z m-5518 59 c35 -16 52 -66 30
-90 -11 -13 -25 -17 -40 -13 -13 4 -42 -1 -63 -9 -34 -14 -41 -14 -51 -2 -18
22 -25 92 -10 110 15 18 97 20 134 4z m3324 -11 c7 -7 12 -27 12 -45 0 -25 -4
-33 -18 -33 -10 0 -29 -12 -42 -27 -23 -26 -26 -38 -37 -116 -4 -32 -9 -38
-27 -35 -19 3 -21 10 -24 68 -5 106 2 125 61 165 58 39 59 39 75 23z m1082
-14 c162 -3 301 -7 307 -9 8 -3 10 -11 5 -25 -8 -21 -11 -21 -377 -20 -376 1
-459 4 -498 19 -21 9 -21 9 8 22 44 18 121 28 195 23 36 -2 198 -6 360 -10z
m-1860 2 c0 -11 -19 -15 -25 -6 -3 5 1 10 9 10 9 0 16 -2 16 -4z m-2632 -171
c-3 -3 -9 2 -12 12 -6 14 -5 15 5 6 7 -7 10 -15 7 -18z m290 -21 c30 -20 28
-29 -8 -29 -16 0 -30 4 -30 8 0 5 -4 5 -10 2 -6 -3 -7 1 -4 9 4 10 1 16 -9 16
-9 0 -19 5 -23 11 -9 15 53 2 84 -17z m4424 -191 c88 -25 138 -49 223 -106
124 -85 184 -164 237 -315 51 -146 59 -394 26 -749 -1 -7 -8 -15 -16 -18 -8
-3 -12 -12 -9 -19 4 -10 -5 -18 -28 -26 -29 -9 -40 -23 -71 -86 -51 -101 -116
-171 -202 -216 -114 -61 -148 -66 -482 -73 -341 -8 -380 -5 -380 30 0 12 8 26
18 30 9 4 154 9 322 12 173 2 324 9 350 15 190 46 337 217 360 418 21 182 5
524 -29 622 -43 126 -128 218 -260 285 l-76 37 -300 7 c-165 4 -1488 7 -2940
8 -2890 1 -2677 5 -2809 -59 -116 -57 -210 -174 -253 -315 -16 -52 -18 -96
-17 -330 0 -323 6 -356 75 -460 58 -87 129 -152 206 -190 76 -37 167 -44 549
-44 177 0 345 -3 373 -7 l51 -7 25 57 c14 31 29 56 35 56 11 0 90 -155 90
-176 0 -8 -14 -5 -39 9 -34 19 -44 20 -71 10 -42 -16 -845 -9 -933 8 -70 14
-135 39 -178 70 -16 11 -33 18 -37 15 -5 -3 -27 7 -48 22 -21 15 -46 27 -54
27 -8 0 -15 5 -15 12 0 19 -14 26 -28 14 -11 -8 -18 -7 -30 7 -23 26 -92 179
-106 234 -7 29 -11 158 -11 346 0 265 2 308 20 376 30 120 82 209 175 301 127
126 233 172 435 185 58 4 1381 7 2940 6 l2835 -1 77 -22z m-5035 -450 c96
-120 262 -337 302 -395 17 -27 35 -48 39 -48 4 0 6 110 4 244 -4 294 -11 278
117 274 l86 -3 7 -435 c6 -373 5 -437 -8 -450 -9 -9 -40 -16 -83 -18 -58 -4
-72 -1 -84 14 -9 11 -91 114 -182 229 -92 116 -180 226 -195 245 l-29 35 0
-246 c-1 -284 3 -271 -95 -277 -49 -3 -66 0 -84 14 l-23 19 -2 435 -2 435 50
6 c114 13 105 17 182 -78z m2073 71 c179 -40 304 -173 331 -353 52 -347 -260
-631 -583 -531 -122 37 -207 113 -264 234 -89 187 -59 384 79 528 112 117 268
161 437 122z m2312 -6 c29 -54 145 -306 213 -463 40 -93 94 -216 119 -273 25
-56 46 -111 46 -122 0 -27 -30 -40 -92 -39 -102 2 -108 6 -143 86 -17 40 -33
75 -36 77 -2 3 -87 6 -189 7 l-184 2 -36 -80 c-42 -90 -47 -93 -147 -93 -69 0
-98 18 -90 54 3 12 35 91 72 176 37 85 112 261 167 390 136 320 116 288 191
293 34 2 70 4 79 5 10 1 23 -8 30 -20z m-4754 -87 c2 -69 -1 -97 -10 -103 -7
-4 -99 -8 -205 -8 -219 0 -201 10 -195 -102 l4 -58 179 0 179 0 0 -89 0 -89
-185 -7 -185 -7 0 -72 0 -71 162 3 c89 2 185 1 214 -3 l51 -6 7 -78 c3 -43 3
-86 0 -95 -5 -14 -39 -16 -304 -16 -279 0 -298 1 -314 19 -16 17 -17 57 -17
439 -1 232 2 426 6 432 4 7 103 9 308 8 l302 -3 3 -94z m1573 76 c78 -26 125
-54 157 -94 65 -82 85 -185 58 -292 -20 -79 -42 -110 -106 -151 -27 -18 -50
-39 -50 -47 0 -23 80 -139 146 -211 41 -46 54 -66 45 -72 -17 -10 -221 -24
-229 -15 -4 3 -43 61 -87 128 l-81 122 -72 3 -72 3 0 -121 c0 -120 0 -121 -26
-130 -43 -17 -150 -12 -165 6 -11 13 -14 104 -17 440 -3 233 -2 431 2 440 5
14 30 15 229 11 164 -3 234 -8 268 -20z m1520 -12 c4 -16 7 -171 8 -342 l1
-313 181 0 181 0 -7 -102 c-4 -57 -10 -105 -12 -108 -3 -3 -123 -7 -267 -8
-223 -3 -264 -1 -275 11 -9 12 -11 114 -9 446 3 371 5 433 18 441 8 6 51 9 95
8 l80 -3 6 -30z m679 9 c6 -14 10 -74 10 -133 0 -59 3 -203 7 -319 l6 -212
190 0 190 0 -7 -61 c-3 -34 -6 -76 -6 -93 0 -62 7 -61 -288 -63 -147 -1 -274
2 -282 7 -17 11 -22 134 -23 563 0 265 2 320 14 328 8 5 51 9 97 9 79 0 83 -1
92 -26z m1670 -413 c0 -379 -2 -440 -15 -451 -8 -7 -47 -15 -85 -18 -119 -8
-110 -44 -110 463 0 237 3 435 7 438 3 4 51 7 105 7 l98 0 0 -439z m-4507
-723 c33 -96 36 -112 16 -116 -11 -2 -19 6 -23 23 -5 18 -15 27 -36 32 -41 8
-44 6 -55 -27 -8 -22 -14 -27 -24 -20 -16 9 -17 4 33 145 14 39 26 72 26 75 2
19 41 -51 63 -112z m112 -8 c0 -67 -4 -105 -11 -107 -8 -3 -13 23 -16 76 -5
95 0 143 16 138 7 -2 11 -39 11 -107z m2159 100 c14 -5 30 -19 37 -31 11 -21
10 -22 -29 -16 -31 6 -45 3 -66 -14 -14 -11 -26 -30 -26 -42 0 -34 38 -89 58
-85 22 4 28 46 8 54 -33 13 -17 34 25 34 l40 0 -3 -42 c-2 -31 -10 -46 -30
-61 -24 -18 -30 -18 -58 -7 -97 40 -106 146 -16 201 37 22 29 21 60 9z m685
-8 c17 -31 70 -196 66 -201 -3 -2 -18 8 -34 23 -32 31 -56 30 -86 -4 -42 -47
-45 -18 -9 94 15 44 28 87 30 94 5 17 22 15 33 -6z m296 -83 c7 -100 0 -130
-24 -115 -12 8 -16 198 -4 209 16 17 21 1 28 -94z m443 5 c5 -150 -9 -163 -72
-68 -20 30 -41 54 -46 54 -6 0 -10 -22 -10 -49 0 -43 -12 -72 -25 -59 -4 4 -8
126 -6 176 0 17 6 32 13 32 6 0 33 -24 59 -52 l48 -53 1 42 c0 50 9 75 24 70
7 -2 12 -38 14 -93z m-4064 46 c14 -21 35 -44 46 -50 19 -10 20 -8 20 40 0 36
4 50 14 50 19 0 27 -51 20 -131 -8 -78 -21 -87 -53 -36 -11 18 -29 42 -41 52
-20 18 -20 18 -20 -38 0 -42 -4 -57 -14 -57 -20 0 -26 23 -26 105 0 115 11
129 54 65z m792 15 c20 -20 25 -34 22 -62 -3 -32 -8 -39 -33 -46 -52 -16 -60
-23 -63 -56 -2 -19 -8 -31 -15 -28 -8 2 -13 39 -15 110 l-3 107 41 0 c30 0 47
-7 66 -25z m219 -12 c14 -21 25 -49 25 -63 0 -32 -32 -84 -64 -105 -22 -15
-27 -15 -54 -1 -50 26 -79 118 -49 156 22 28 61 50 89 50 20 0 34 -9 53 -37z
m113 -14 c7 -24 16 -51 19 -59 3 -9 14 7 28 40 13 30 27 56 32 57 5 2 14 -22
19 -54 11 -60 13 -59 36 16 7 25 19 47 27 49 11 4 12 -5 6 -44 -9 -62 -33
-135 -50 -153 -11 -11 -14 -8 -20 17 -6 28 -31 60 -39 51 -2 -2 -11 -21 -20
-42 -9 -21 -21 -37 -28 -35 -13 5 -48 136 -48 181 0 42 21 28 38 -24z m342 36
c0 -9 -9 -15 -22 -15 -44 0 -68 -12 -68 -32 0 -18 5 -20 40 -15 37 5 40 3 40
-19 0 -21 -4 -24 -41 -24 -36 0 -40 -2 -37 -22 3 -20 8 -23 46 -20 40 4 42 2
42 -23 0 -25 -1 -26 -57 -23 l-58 3 -3 103 -3 102 61 0 c47 0 60 -3 60 -15z
m167 -7 c26 -25 31 -75 8 -84 -22 -9 -18 -44 7 -71 12 -13 18 -26 15 -30 -13
-12 -56 16 -72 47 -21 40 -35 38 -35 -5 0 -24 -5 -35 -15 -35 -12 0 -15 18
-15 100 l0 100 42 0 c29 0 49 -7 65 -22z m198 -4 c0 -12 -6 -18 -17 -16 -24 4
-58 -16 -58 -33 0 -11 9 -14 32 -13 24 2 33 -2 36 -14 2 -13 -3 -18 -20 -18
-32 0 -52 -15 -45 -34 4 -11 19 -16 42 -16 29 0 36 -3 33 -17 -2 -13 -15 -19
-48 -21 -61 -5 -70 11 -70 117 l0 86 57 -1 c50 -1 58 -3 58 -20z m452 4 c27
-25 32 -82 8 -92 -22 -8 -18 -46 7 -73 12 -13 18 -26 15 -30 -13 -12 -56 16
-72 47 -21 40 -33 38 -37 -7 -2 -20 -9 -38 -15 -41 -10 -3 -13 20 -13 91 0 53
-3 102 -6 111 -10 27 83 22 113 -6z m191 5 c-2 -12 -15 -20 -38 -23 -28 -4
-36 -10 -38 -29 -3 -22 -1 -23 27 -18 28 6 31 4 31 -18 0 -21 -5 -25 -30 -25
-23 0 -30 -4 -30 -20 0 -17 7 -20 40 -20 41 0 57 -21 24 -34 -29 -11 -94 -7
-94 7 -1 6 -3 54 -6 105 l-6 92 62 0 c53 0 61 -2 58 -17z m302 -82 c0 -79 -3
-100 -15 -105 -13 -5 -15 10 -15 99 0 87 3 105 15 105 12 0 15 -18 15 -99z
m180 80 c15 -29 14 -29 -36 -28 -64 3 -66 -15 -5 -49 50 -27 59 -42 45 -79 -9
-23 -62 -48 -90 -41 -22 6 -51 42 -41 52 2 2 18 -1 36 -7 71 -25 83 17 14 52
-27 13 -49 32 -51 42 -2 9 10 31 26 47 36 36 85 41 102 11z m228 -14 c10 -21
11 -32 3 -40 -7 -7 -12 -6 -17 6 -4 11 -17 17 -35 17 -29 0 -29 -1 -29 -59 0
-63 -6 -91 -21 -91 -5 0 -9 33 -9 74 0 73 0 74 -30 85 -16 5 -30 17 -30 26 0
13 12 15 77 13 74 -3 78 -4 91 -31z m352 8 c0 -18 -5 -21 -22 -18 -23 4 -23 3
-19 -82 3 -80 2 -87 -15 -83 -16 3 -19 14 -22 80 -3 70 -5 76 -26 82 -13 3
-26 15 -29 26 -5 19 0 20 64 19 65 -1 69 -3 69 -24z m265 17 c24 -16 55 -72
55 -97 0 -59 -45 -106 -103 -105 -25 1 -77 63 -77 92 0 72 80 143 125 110z
m-1790 -27 c20 -19 25 -34 25 -74 0 -41 -4 -53 -25 -69 -34 -27 -104 -39 -116
-21 -5 8 -9 53 -9 102 l0 87 50 0 c41 0 56 -5 75 -25z m-1375 -80 c0 -11 -12
-15 -44 -15 -43 0 -63 10 -49 24 3 3 26 6 50 6 32 0 43 -4 43 -15z m2553 -32
c3 -21 8 -47 13 -58 6 -16 1 -14 -24 9 -48 45 -54 86 -13 86 14 0 20 -10 24
-37z m-2871 -193 c-22 -9 -22 -10 -5 -37 25 -40 37 -50 50 -46 18 6 25 -98 19
-314 -7 -216 5 -393 28 -458 8 -22 15 -35 16 -30 1 10 50 -108 64 -152 6 -18
3 -23 -9 -23 -12 0 -16 -6 -13 -18 8 -31 -30 -23 -56 11 -14 18 -50 82 -80
144 l-56 112 -10 130 c-11 138 -12 446 -3 599 l5 92 37 -1 c32 0 33 -1 13 -9z
m1195 -26 c4 -32 27 -54 56 -54 19 0 20 -6 14 -186 -4 -145 -9 -191 -22 -210
-14 -21 -14 -24 0 -24 18 0 19 -5 4 -31 -5 -11 -7 -30 -3 -42 7 -21 7 -21 15
-2 5 12 8 -14 8 -67 1 -75 -1 -88 -15 -88 -12 0 -15 -6 -10 -25 4 -17 2 -25
-6 -26 -7 0 -4 -4 7 -9 11 -5 14 -9 6 -9 -8 -1 -11 -7 -7 -17 5 -13 1 -15 -19
-11 -22 4 -27 0 -32 -24 -3 -16 -10 -32 -16 -36 -7 -4 -8 1 -3 13 5 14 4 16
-4 8 -15 -15 -20 -46 -9 -60 13 -16 -1 -46 -18 -40 -8 3 -12 2 -9 -3 7 -11
-61 -44 -74 -36 -6 4 -8 10 -5 15 7 12 -16 25 -24 14 -3 -5 -33 -10 -66 -11
-141 -5 -138 -6 -172 32 -35 37 -37 43 -25 62 5 8 22 8 62 1 129 -24 243 11
292 89 23 38 23 42 28 413 3 206 9 381 13 388 14 20 30 9 34 -24z m636 29 c-7
-2 -19 -2 -25 0 -7 3 -2 5 12 5 14 0 19 -2 13 -5z m-310 -9 c-17 -7 22 -44 47
-44 19 0 20 -6 19 -112 -1 -123 -15 -319 -17 -250 -1 23 -6 42 -11 42 -14 0
-20 -77 -25 -352 l-6 -248 28 -5 c85 -18 120 -33 182 -76 104 -74 140 -132
140 -230 0 -65 -31 -144 -59 -152 -9 -2 -25 -22 -36 -43 -32 -61 -98 -111
-126 -93 -8 5 -9 9 -3 9 25 0 112 96 123 135 37 132 -23 277 -139 338 -47 25
-64 28 -115 25 -148 -10 -246 -119 -248 -276 0 -76 33 -204 51 -197 19 7 52
-13 52 -30 0 -8 5 -15 11 -15 5 0 7 -5 3 -12 -5 -8 -11 -5 -17 10 -14 30 -23
28 -36 -9 l-10 -30 -32 18 c-91 53 -135 154 -126 291 9 155 87 264 224 314
l68 25 0 464 c0 255 4 474 8 487 6 16 16 22 35 21 15 0 22 -3 15 -5z m1520 -2
c-14 -9 18 -52 40 -52 9 0 23 -7 31 -16 14 -13 16 -59 16 -350 0 -230 -3 -334
-11 -334 -6 0 -8 -9 -4 -21 5 -16 4 -19 -6 -14 -9 6 -11 3 -6 -9 4 -11 3 -15
-4 -10 -7 4 -9 -1 -4 -15 3 -11 2 -28 -3 -37 -8 -15 -10 -15 -15 0 -4 10 -3
15 3 11 6 -3 10 -2 10 4 0 5 -4 13 -10 16 -5 3 -10 1 -10 -4 0 -18 -3 -26 -17
-39 -7 -7 -13 -19 -13 -26 0 -6 -10 -18 -22 -26 -11 -8 -50 -42 -86 -75 -89
-83 -116 -99 -215 -131 -79 -26 -103 -44 -56 -44 10 0 19 -4 19 -10 0 -14 -76
16 -117 47 -80 61 -97 183 -40 293 40 80 67 100 143 107 116 10 172 -40 154
-137 -11 -55 -26 -90 -40 -90 -5 0 -6 15 -3 33 7 46 -20 107 -47 107 -58 0
-130 -70 -130 -127 0 -44 34 -101 64 -109 49 -12 92 -10 121 5 17 8 33 15 36
16 4 0 25 15 48 33 31 25 54 60 94 140 l52 107 0 230 c1 492 3 535 23 535 11
0 13 -3 5 -8z m-1218 -32 c4 -18 15 -32 28 -36 12 -4 30 -16 40 -28 18 -20 19
-38 12 -317 -7 -290 -6 -297 15 -346 12 -28 31 -60 43 -71 41 -38 127 -74 195
-81 l67 -7 -54 -17 c-68 -21 -120 -22 -149 -1 -12 8 -27 12 -34 8 -7 -4 -8 -3
-4 4 4 7 2 12 -5 12 -7 0 -9 -8 -6 -21 4 -17 3 -18 -9 -8 -12 10 -13 9 -8 -5
3 -9 11 -16 16 -16 18 0 78 -32 78 -41 0 -14 -61 0 -96 22 -43 26 -108 98
-136 151 -23 42 -23 47 -26 422 -2 209 -1 385 2 393 9 22 24 14 31 -17z
m-2595 -2 c34 -18 51 -35 69 -71 21 -44 23 -52 12 -89 -13 -41 -51 -88 -72
-88 -8 0 -7 6 3 18 33 38 30 44 -8 15 -52 -42 -85 -49 -129 -29 -36 18 -67 65
-79 122 -11 48 27 121 68 133 52 15 90 12 136 -11z m4755 6 c36 -17 46 -42 50
-134 1 -44 -2 -60 -19 -78 -67 -75 -182 -68 -221 14 -31 65 3 151 75 193 42
25 71 26 115 5z m-3699 -5 c3 -6 26 -20 50 -31 l44 -19 0 -223 c0 -179 -3
-229 -15 -252 -8 -16 -15 -38 -15 -50 0 -25 -26 -50 -61 -59 l-26 -6 -6 212
c-9 264 -9 403 -1 423 7 19 20 21 30 5z m1864 -25 c7 -13 16 -24 20 -24 4 0
17 -9 29 -19 22 -20 23 -46 6 -233 -1 -21 -3 -61 -4 -89 -1 -28 -5 -48 -10
-44 -12 7 -17 -1 -26 -42 -6 -31 -5 -33 19 -33 32 0 96 -39 125 -76 21 -27 24
-77 6 -131 -19 -58 -126 -93 -191 -62 -31 15 -71 68 -81 107 -8 33 12 95 43
132 17 19 24 37 20 47 -9 21 -9 480 -1 493 9 14 31 2 45 -26z m-1260 17 c0
-12 56 -31 65 -23 4 4 4 -83 0 -193 -7 -193 -13 -256 -16 -164 -3 71 -4 77
-11 85 -5 4 -9 -7 -9 -24 -2 -44 -3 -49 -11 -58 -5 -4 -8 -24 -8 -45 0 -21 -4
-41 -10 -44 -21 -13 -9 -33 28 -48 20 -8 45 -24 55 -35 40 -44 41 -127 2 -176
-21 -26 -27 -28 -61 -21 -35 7 -37 8 -18 17 40 19 57 84 28 112 -26 27 -72 20
-92 -13 -9 -16 -30 -35 -47 -43 -27 -12 -30 -17 -27 -55 3 -49 -5 -53 -32 -17
-41 56 1 184 74 227 l30 18 0 157 c0 86 3 201 7 255 6 93 7 97 30 97 12 0 23
-4 23 -9z m1851 -12 c21 -14 29 -29 30 -52 1 -24 3 -26 6 -9 5 23 22 31 24 10
5 -46 -4 -284 -11 -288 -4 -3 -12 -61 -18 -129 -7 -89 -14 -128 -26 -139 -15
-15 -17 -15 -33 1 -16 16 -18 47 -22 288 -3 248 1 339 15 339 3 0 19 -9 35
-21z m-4031 -24 c0 -18 37 -43 70 -48 18 -3 40 -26 81 -88 72 -109 159 -187
263 -238 101 -49 177 -68 333 -81 165 -14 241 -12 288 6 66 26 101 29 109 8
10 -26 -10 -40 -105 -68 -58 -18 -108 -26 -158 -26 -39 0 -93 -5 -119 -12 -35
-9 -47 -9 -50 0 -2 7 -8 10 -13 6 -5 -3 -9 -1 -9 4 0 5 -42 17 -92 26 -54 10
-117 30 -150 46 -32 17 -58 25 -58 20 0 -5 8 -14 18 -19 13 -8 9 -9 -18 -5
-19 3 -42 8 -50 11 -8 3 -24 7 -34 8 -10 1 -24 9 -30 17 -13 18 -62 45 -52 29
13 -21 -4 -11 -34 20 -16 18 -30 29 -30 25 0 -19 -102 113 -133 172 -42 81
-71 167 -63 187 7 19 36 19 36 0z m1010 -21 c40 -21 56 -37 79 -74 28 -46 27
-64 -2 -58 -20 4 -26 -2 -40 -42 -9 -26 -32 -64 -51 -84 -27 -30 -42 -38 -76
-40 -23 -2 -37 0 -31 3 12 8 -1 32 -20 34 -8 2 -25 10 -38 19 -13 10 -28 15
-33 12 -22 -14 50 -83 89 -85 16 -1 16 -2 1 -6 -28 -7 -94 36 -117 77 -83 148
90 324 239 244z m3781 11 c73 -26 129 -93 129 -154 0 -39 -16 -48 -25 -14 -5
21 -8 24 -16 12 -5 -7 -9 -9 -9 -4 -1 6 -12 -14 -25 -43 -29 -64 -76 -90 -128
-72 -40 13 -68 34 -71 52 -4 25 -21 47 -32 40 -6 -4 -15 -23 -20 -42 l-10 -34
-18 38 c-42 88 17 203 117 226 49 12 61 11 108 -5z m789 -4 c0 -5 14 -14 30
-20 25 -8 30 -16 30 -41 0 -19 -8 -36 -22 -48 -12 -9 -36 -32 -53 -51 -74 -84
-193 -197 -220 -211 -16 -8 -46 -25 -65 -37 -47 -30 -159 -70 -250 -89 -92
-19 -309 -19 -397 0 -53 11 -61 11 -56 -2 5 -11 1 -13 -18 -7 -13 4 -28 11
-33 15 -7 8 0 100 8 100 2 0 35 -12 72 -27 82 -32 171 -34 379 -9 112 14 140
21 212 55 107 51 144 77 224 156 60 59 100 122 128 198 10 25 31 38 31 18z
m-3580 -70 l22 -70 -38 -38 c-22 -22 -63 -69 -93 -107 -30 -37 -63 -72 -73
-77 -20 -11 -15 -33 5 -23 7 3 3 -2 -7 -10 -35 -28 -46 -20 -46 35 0 58 7 73
68 148 40 50 59 84 100 184 19 45 38 33 62 -42z m1810 -141 c85 -94 99 -115
100 -149 0 -16 -4 -21 -14 -18 -12 5 -13 -1 -9 -29 7 -40 -8 -44 -59 -18 -68
35 -207 191 -192 216 5 7 3 8 -6 3 -10 -6 -11 -3 -5 16 4 13 8 40 9 59 2 19 8
46 16 59 l13 25 36 -41 c20 -22 70 -78 111 -123z m-1937 -140 c-10 -11 -19
-20 -21 -20 -1 0 2 9 8 20 6 11 15 20 20 20 6 0 2 -9 -7 -20z m-148 -301 c25
-7 58 -29 89 -60 l49 -49 -6 -73 c-6 -85 -32 -134 -89 -166 -54 -31 -142 -40
-201 -20 -49 17 -70 29 -48 29 7 0 9 5 5 11 -5 8 3 9 27 3 19 -5 57 -9 86 -9
44 0 57 5 84 30 17 17 38 45 46 64 13 31 13 37 -9 79 -28 54 -68 87 -95 78
-26 -8 -80 -87 -78 -114 2 -26 -21 -29 -47 -5 -40 36 -14 148 45 195 25 20 84
23 142 7z m755 -155 c-6 -6 -7 -14 -3 -18 4 -4 0 -4 -8 -1 -21 8 -20 31 2 31
12 0 15 -4 9 -12z m-1005 -174 c3 -5 2 -10 -4 -10 -5 0 -13 5 -16 10 -3 6 -2
10 4 10 5 0 13 -4 16 -10z m763 -55 c57 -23 84 -77 80 -157 -2 -50 -8 -66 -29
-90 -28 -30 -56 -36 -64 -15 -6 13 -115 22 -115 9 0 -5 6 -14 13 -22 9 -10 5
-10 -13 2 -95 58 -93 216 3 261 28 13 55 22 79 26 4 0 25 -6 46 -14z m1299 -6
c32 -12 63 -67 63 -112 0 -42 -27 -97 -47 -97 -7 0 -13 -6 -13 -12 0 -9 -4 -8
-10 2 -9 14 -15 7 -11 -14 1 -5 -4 -4 -13 3 -10 8 -16 9 -21 1 -3 -5 -24 -10
-45 -10 -30 0 -40 -4 -45 -21 -6 -17 -9 -18 -22 -7 -30 25 -62 108 -56 147 17
110 111 161 220 120z m-621 -44 c44 -44 51 -69 31 -102 -4 -6 -3 -22 2 -35 18
-49 -26 -98 -89 -98 -36 0 -90 11 -124 26 -16 6 -18 4 -13 -10 4 -10 3 -15 -3
-11 -6 3 -10 1 -10 -4 0 -26 -32 -8 -47 26 -18 44 -11 134 12 170 40 60 78 81
148 82 43 1 51 -3 93 -44z m-749 -241 c-3 -3 -12 -4 -19 -1 -8 3 -5 6 6 6 11
1 17 -2 13 -5z m853 -158 c0 -3 -4 -8 -10 -11 -5 -3 -10 -1 -10 4 0 6 5 11 10
11 6 0 10 -2 10 -4z"/>
<path d="M4526 8591 c-15 -23 46 -111 76 -111 40 0 52 66 18 100 -21 21 -84
28 -94 11z"/>
<path d="M5370 8577 c-16 -8 -26 -23 -28 -40 -3 -22 2 -29 24 -37 32 -13 42
-5 59 44 10 29 10 36 -2 40 -20 8 -24 7 -53 -7z"/>
<path d="M4322 8464 c-43 -30 -20 -85 45 -103 22 -6 35 -5 50 8 33 26 35 48 7
81 -29 34 -66 39 -102 14z"/>
<path d="M5565 8456 c-15 -23 -15 -27 0 -49 17 -27 31 -35 83 -47 30 -7 34 -6
43 18 12 31 -4 78 -32 92 -34 18 -77 12 -94 -14z"/>
<path d="M6750 8130 c0 -6 7 -10 15 -10 8 0 15 2 15 4 0 2 -7 6 -15 10 -8 3
-15 1 -15 -4z"/>
<path d="M3890 8065 c0 -46 22 -62 55 -41 14 9 25 20 25 24 -1 17 -27 39 -52
44 -26 5 -28 3 -28 -27z"/>
<path d="M6660 8071 c0 -6 4 -13 10 -16 6 -3 7 1 4 9 -7 18 -14 21 -14 7z"/>
<path d="M6598 8013 c7 -3 16 -2 19 1 4 3 -2 6 -13 5 -11 0 -14 -3 -6 -6z"/>
<path d="M6535 7870 c-3 -5 -1 -10 4 -10 6 0 11 5 11 10 0 6 -2 10 -4 10 -3 0
-8 -4 -11 -10z"/>
<path d="M4136 7768 c-9 -12 -16 -37 -16 -54 0 -28 4 -33 30 -39 19 -4 36 -2
45 5 15 13 20 65 9 94 -9 23 -50 19 -68 -6z"/>
<path d="M2770 7741 c0 -5 6 -11 13 -14 8 -3 14 1 14 9 0 8 -6 14 -14 14 -7 0
-13 -4 -13 -9z"/>
<path d="M4355 7706 c-24 -17 -13 -46 19 -46 13 0 27 7 30 16 8 22 8 22 -13
33 -13 7 -23 6 -36 -3z"/>
<path d="M5606 7532 c-15 -18 -15 -21 -2 -35 12 -12 13 -17 3 -20 -7 -3 -5 -6
5 -6 12 -1 15 -6 11 -18 -3 -10 -3 -15 2 -11 4 4 14 3 22 -4 10 -8 12 -8 8 3
-9 26 10 42 34 30 14 -8 21 -8 21 -1 0 5 -4 10 -10 10 -5 0 -10 9 -10 20 0 14
-7 20 -22 21 -22 0 -22 1 -3 9 16 7 17 9 3 9 -9 1 -23 3 -30 6 -8 3 -22 -3
-32 -13z"/>
<path d="M4323 7523 c-48 -33 -13 -103 50 -103 62 0 106 84 58 110 -28 15 -82
11 -108 -7z"/>
<path d="M5765 7480 c-3 -5 -1 -10 4 -10 6 0 11 5 11 10 0 6 -2 10 -4 10 -3 0
-8 -4 -11 -10z"/>
<path d="M5797 7463 c-5 -7 -5 -13 -1 -13 4 0 -1 -7 -12 -15 -10 -8 -14 -14
-9 -15 20 0 37 18 33 36 -2 14 -6 15 -11 7z"/>
<path d="M4602 7448 c-14 -14 -16 -68 -3 -68 5 0 24 7 44 15 31 13 47 31 47
56 0 13 -74 11 -88 -3z"/>
<path d="M5310 7451 c-30 -8 -43 -50 -21 -68 13 -10 14 -14 2 -22 -9 -6 -10
-11 -2 -15 6 -4 11 -3 11 3 0 5 9 9 19 8 11 0 17 -6 14 -14 -6 -15 6 -17 27
-3 13 9 13 10 0 10 -8 1 -3 7 13 16 63 34 11 105 -63 85z"/>
<path d="M5575 7350 c3 -5 14 -10 23 -10 15 0 15 2 2 10 -20 13 -33 13 -25 0z"/>
<path d="M4769 7311 c-33 -33 -36 -46 -14 -55 8 -3 20 -17 25 -31 8 -22 13
-24 30 -15 11 6 20 16 21 23 1 7 2 26 4 42 5 63 -23 78 -66 36z"/>
<path d="M5520 7310 c0 -5 5 -10 11 -10 5 0 7 5 4 10 -3 6 -8 10 -11 10 -2 0
-4 -4 -4 -10z"/>
<path d="M5422 7280 c0 -14 2 -19 5 -12 2 6 2 18 0 25 -3 6 -5 1 -5 -13z"/>
<path d="M5446 7285 c4 -8 8 -15 10 -15 2 0 4 7 4 15 0 8 -4 15 -10 15 -5 0
-7 -7 -4 -15z"/>
<path d="M5481 7284 c0 -11 3 -14 6 -6 3 7 2 16 -1 19 -3 4 -6 -2 -5 -13z"/>
<path d="M5193 7268 c4 -11 0 -18 -11 -21 -12 -3 -11 -5 5 -6 29 -1 35 10 15
29 -14 13 -15 12 -9 -2z"/>
<path d="M5370 7252 c0 -10 7 -19 15 -19 8 0 15 2 15 4 0 3 -7 11 -15 19 -13
14 -15 13 -15 -4z"/>
<path d="M5138 7243 c7 -3 16 -2 19 1 4 3 -2 6 -13 5 -11 0 -14 -3 -6 -6z"/>
<path d="M4890 7164 c0 -13 18 -39 24 -34 2 3 -2 14 -10 24 -8 11 -14 16 -14
10z"/>
<path d="M4750 6946 c0 -2 7 -7 16 -10 8 -3 12 -2 9 4 -6 10 -25 14 -25 6z"/>
<path d="M4878 6943 c7 -3 16 -2 19 1 4 3 -2 6 -13 5 -11 0 -14 -3 -6 -6z"/>
<path d="M5485 6441 c-3 -5 -1 -12 4 -15 5 -3 11 1 15 9 6 16 -9 21 -19 6z"/>
<path d="M5410 6396 c0 -2 7 -7 16 -10 8 -3 12 -2 9 4 -6 10 -25 14 -25 6z"/>
<path d="M5420 6360 c0 -5 5 -10 11 -10 5 0 7 5 4 10 -3 6 -8 10 -11 10 -2 0
-4 -4 -4 -10z"/>
<path d="M5423 6333 c-10 -4 -10 -7 0 -17 16 -16 47 -27 47 -17 0 5 -9 11 -21
14 -12 3 -18 10 -14 16 7 12 6 12 -12 4z"/>
<path d="M5271 6174 c0 -11 3 -14 6 -6 3 7 2 16 -1 19 -3 4 -6 -2 -5 -13z"/>
<path d="M2306 7078 c-10 -41 -7 -48 24 -48 35 0 41 27 12 53 -24 22 -28 21
-36 -5z"/>
<path d="M2932 6834 c-47 -32 -17 -104 44 -104 37 0 47 8 68 48 17 32 17 35 0
53 -21 23 -81 25 -112 3z"/>
<path d="M3851 4734 c0 -11 3 -14 6 -6 3 7 2 16 -1 19 -3 4 -6 -2 -5 -13z"/>
<path d="M1360 6635 c-20 -21 -22 -28 -12 -50 21 -45 92 -29 92 20 0 22 -28
55 -47 55 -5 0 -20 -11 -33 -25z"/>
<path d="M1846 6558 c-31 -44 -13 -98 33 -98 30 0 61 27 61 52 0 24 -39 68
-60 68 -10 0 -26 -10 -34 -22z"/>
<path d="M6583 5330 c-6 -41 -15 -84 -19 -94 -5 -13 -4 -17 4 -12 15 9 35 103
30 146 -2 27 -6 19 -15 -40z"/>
<path d="M5538 6353 c7 -3 16 -2 19 1 4 3 -2 6 -13 5 -11 0 -14 -3 -6 -6z"/>
<path d="M1795 5180 c-3 -6 1 -7 9 -4 18 7 21 14 7 14 -6 0 -13 -4 -16 -10z"/>
<path d="M2602 6092 c-23 -15 -27 -80 -7 -102 51 -57 123 20 85 91 -11 20 -54
26 -78 11z"/>
<path d="M5835 5280 c-3 -5 -1 -10 4 -10 6 0 11 5 11 10 0 6 -2 10 -4 10 -3 0
-8 -4 -11 -10z"/>
<path d="M5510 5099 c0 -5 5 -7 10 -4 6 3 10 8 10 11 0 2 -4 4 -10 4 -5 0 -10
-5 -10 -11z"/>
<path d="M5146 4759 c-8 -42 0 -50 9 -9 4 17 5 34 2 36 -2 3 -7 -10 -11 -27z"/>
<path d="M8518 5835 c-6 -29 14 -45 43 -38 18 5 18 7 2 34 -21 36 -39 37 -45
4z"/>
<path d="M4987 5144 c-2 -5 -1 -27 3 -49 4 -22 9 -33 10 -25 1 8 3 24 5 34 4
23 -9 53 -18 40z"/>
<path d="M4931 5539 c-19 -18 -22 -28 -16 -58 7 -42 28 -61 65 -61 38 0 60 29
60 78 0 31 -5 44 -19 52 -31 16 -65 12 -90 -11z"/>
<path d="M3682 5537 c-12 -13 -22 -33 -22 -44 0 -30 38 -73 65 -73 25 0 65 42
65 67 0 8 -7 27 -15 43 -20 38 -62 41 -93 7z"/>
<path d="M3664 5401 c11 -11 23 -21 28 -21 14 0 -1 19 -25 31 -22 12 -22 12
-3 -10z"/>
<path d="M6208 5538 c-26 -21 -27 -77 -2 -102 22 -23 81 -21 94 3 11 22 13 71
4 95 -8 20 -73 22 -96 4z"/>
<path d="M8125 5356 c-19 -29 -8 -60 25 -69 28 -7 62 26 53 50 -17 49 -53 57
-78 19z"/>
<path d="M6175 5210 c-3 -6 1 -7 9 -4 18 7 21 14 7 14 -6 0 -13 -4 -16 -10z"/>
<path d="M1760 3081 c0 -5 7 -12 16 -15 14 -5 15 -4 4 9 -14 17 -20 19 -20 6z"/>
<path d="M2957 3003 c-12 -12 -7 -22 8 -17 8 4 15 10 15 15 0 11 -14 12 -23 2z"/>
<path d="M4829 3976 c-91 -32 -147 -106 -156 -206 -15 -158 80 -273 227 -274
171 -1 296 174 241 337 -40 118 -190 187 -312 143z"/>
<path d="M7195 3773 c-28 -69 -51 -128 -53 -132 -1 -3 47 -5 108 -3 60 2 110
5 110 7 0 6 -107 245 -111 250 -3 2 -27 -53 -54 -122z"/>
<path d="M3860 3869 l0 -122 105 5 c130 7 175 26 189 81 27 105 -44 155 -221
157 l-73 0 0 -121z"/>
<path d="M3447 3026 c-7 -18 1 -26 25 -26 16 0 17 3 8 20 -13 23 -26 26 -33 6z"/>
<path d="M6447 3034 c-10 -11 -8 -44 2 -44 6 0 13 4 16 10 8 12 -9 43 -18 34z"/>
<path d="M3870 3050 c0 -25 4 -30 24 -30 28 0 42 26 25 46 -6 8 -20 14 -30 14
-14 0 -19 -7 -19 -30z"/>
<path d="M4061 3066 c-29 -31 -26 -92 6 -113 20 -14 24 -13 48 11 31 31 33 78
5 106 -26 26 -32 25 -59 -4z"/>
<path d="M4697 3073 c-4 -3 -7 -15 -7 -25 0 -14 8 -18 34 -18 39 0 53 14 36
35 -13 15 -51 20 -63 8z"/>
<path d="M5347 3061 c-7 -28 5 -40 36 -34 45 9 31 53 -18 53 -7 0 -15 -9 -18
-19z"/>
<path d="M6886 3058 c-33 -53 -27 -108 12 -108 36 0 62 29 62 69 0 60 -45 84
-74 39z"/>
<path d="M5070 3015 c0 -70 7 -78 48 -49 28 19 29 67 2 94 -38 38 -50 27 -50
-45z"/>
<path d="M4535 1830 c-3 -5 -2 -10 4 -10 5 0 13 5 16 10 3 6 2 10 -4 10 -5 0
-13 -4 -16 -10z"/>
<path d="M4766 1214 c-4 -10 -1 -14 6 -12 15 5 23 28 10 28 -5 0 -13 -7 -16
-16z"/>
<path d="M2598 2674 c-27 -14 -32 -23 -29 -54 3 -24 49 -60 69 -53 54 19 70
79 30 107 -27 19 -35 19 -70 0z"/>
<path d="M7352 2659 c-16 -6 -22 -17 -22 -37 0 -35 16 -52 51 -52 34 0 51 21
47 56 -3 31 -39 47 -76 33z"/>
<path d="M5607 2102 c-15 -15 -27 -38 -27 -50 0 -48 107 -77 136 -37 20 27 17
72 -6 95 -29 29 -71 25 -103 -8z"/>
<path d="M3082 2520 c-27 -16 -33 -26 -30 -48 7 -62 108 -25 108 40 0 22 -4
28 -22 28 -13 0 -38 -9 -56 -20z"/>
<path d="M6847 2533 c-4 -3 -7 -11 -7 -17 0 -6 5 -5 12 2 6 6 9 14 7 17 -3 3
-9 2 -12 -2z"/>
<path d="M6929 2533 c-50 -8 -82 -73 -47 -96 23 -15 65 8 85 46 14 28 12 59
-4 56 -4 -1 -20 -4 -34 -6z"/>
<path d="M6010 2280 c20 -13 33 -13 25 0 -3 6 -14 10 -23 10 -15 0 -15 -2 -2
-10z"/>
<path d="M4355 1563 c-27 -7 -65 -43 -65 -63 0 -8 7 -26 16 -38 20 -30 88 -31
104 -3 14 27 13 84 -2 99 -12 12 -19 13 -53 5z"/>
<path d="M5585 1540 c-17 -19 -17 -21 0 -60 10 -22 23 -40 29 -41 26 -3 62 4
74 13 15 13 16 80 0 96 -20 20 -83 15 -103 -8z"/>
<path d="M2692 8818 c-16 -16 -15 -63 1 -77 23 -19 71 -22 91 -7 21 17 24 59
6 81 -15 18 -81 20 -98 3z"/>
<path d="M3100 8700 c0 -6 -8 -10 -17 -8 -10 2 -19 -5 -21 -15 -4 -17 -2 -18
20 -3 14 9 28 13 32 9 4 -4 4 0 0 10 -7 19 -14 22 -14 7z"/>
<path d="M7730 8699 c-32 -13 -40 -26 -40 -70 0 -32 3 -37 29 -42 52 -11 111
17 111 52 0 20 -46 71 -63 70 -7 0 -23 -5 -37 -10z"/>
<path d="M2271 8651 c-16 -10 -18 -58 -3 -73 15 -15 106 -21 162 -11 44 8 45
9 45 48 l0 40 -95 3 c-52 1 -101 -2 -109 -7z"/>
<path d="M2630 8630 c-19 -35 -2 -69 37 -76 49 -9 181 2 199 16 8 7 14 28 14
46 l0 34 -120 0 c-109 0 -120 -2 -130 -20z"/>
<path d="M7184 8585 c-29 -45 3 -105 56 -105 53 0 85 60 56 105 -13 20 -25 25
-56 25 -31 0 -43 -5 -56 -25z"/>
<path d="M2282 8424 c-25 -17 -29 -46 -8 -64 23 -18 122 -29 149 -15 24 12 28
55 6 81 -16 20 -118 19 -147 -2z"/>
<path d="M7570 8391 c0 -28 19 -39 73 -42 52 -3 85 17 74 45 -5 13 -22 16 -77
16 -62 0 -70 -2 -70 -19z"/>
<path d="M2054 7786 c-71 -31 -105 -139 -65 -204 33 -52 77 -74 135 -68 55 6
94 36 121 91 19 42 19 68 -1 112 -34 70 -117 101 -190 69z m70 -86 c21 -8 26
-16 26 -45 0 -29 -5 -38 -26 -47 -23 -11 -29 -10 -45 11 -23 28 -24 54 -3 75
18 19 16 19 48 6z"/>
<path d="M1380 7745 c-30 -9 -86 -37 -125 -63 -57 -39 -78 -61 -117 -126 -27
-43 -53 -97 -58 -120 -43 -185 64 -403 238 -486 158 -75 342 -37 461 97 128
143 151 308 66 480 -44 89 -132 173 -212 203 -74 28 -183 34 -253 15z m152
-96 c62 -14 132 -58 159 -102 26 -43 24 -55 -8 -59 -19 -2 -29 -10 -34 -31 -4
-15 -4 -25 0 -23 4 3 28 8 53 11 40 6 48 4 57 -14 17 -31 13 -88 -9 -135 -10
-24 -17 -53 -15 -65 l4 -22 -30 22 c-39 27 -55 53 -69 111 -9 35 -28 64 -80
119 -64 69 -69 72 -93 62 -14 -7 -33 -24 -44 -38 -10 -14 -29 -40 -42 -56
l-23 -29 -37 32 c-20 18 -47 40 -60 48 -23 15 -23 17 -8 45 28 55 100 109 164
124 53 12 55 12 115 0z m-249 -255 c50 -39 53 -45 36 -92 -12 -34 -28 -41 -81
-34 -33 4 -39 9 -54 49 -16 41 -16 47 -1 79 21 44 42 43 100 -2z m271 -71 l33
-62 -72 1 c-39 0 -81 -3 -93 -6 -17 -6 -22 -3 -22 10 0 17 47 130 63 152 15
19 51 -19 91 -95z m-279 -143 c3 -5 -3 -10 -14 -10 -12 0 -21 5 -21 10 0 6 6
10 14 10 8 0 18 -4 21 -10z m327 -9 c66 -30 80 -42 38 -35 -19 4 -40 11 -47
16 -7 6 -22 -2 -42 -24 -28 -30 -36 -33 -87 -32 -30 0 -58 5 -62 11 -4 5 -20
13 -37 17 -26 7 -27 9 -12 17 10 6 27 7 38 4 16 -5 19 -4 14 5 -5 8 -3 11 6 8
8 -3 29 1 48 8 18 8 37 12 41 9 5 -3 11 -1 15 5 9 15 39 12 87 -9z"/>
<path d="M1461 7348 c-12 -32 -3 -48 25 -48 19 0 24 5 24 25 0 14 -8 29 -20
35 -17 9 -22 7 -29 -12z"/>
<path d="M8399 7731 c-59 -21 -166 -87 -198 -121 -13 -14 -40 -59 -61 -100
-67 -136 -61 -264 20 -401 115 -195 334 -261 535 -161 63 31 161 132 191 197
56 120 58 250 4 359 -43 87 -146 185 -228 217 -75 30 -198 34 -263 10z m202
-96 c51 -18 89 -51 89 -77 0 -11 -4 -17 -9 -14 -5 3 -25 -12 -45 -34 -40 -44
-48 -47 -67 -24 -7 8 -26 22 -42 30 -28 15 -29 15 -87 -40 -32 -31 -62 -56
-66 -56 -4 0 -15 7 -23 15 -9 8 -34 20 -55 27 -22 7 -41 18 -43 24 -2 5 13 29
32 51 84 98 207 136 316 98z m208 -232 c22 -42 7 -138 -26 -171 -7 -8 -11 -17
-8 -22 3 -5 1 -11 -4 -14 -5 -4 -20 8 -32 26 -12 18 -32 41 -43 50 l-21 17 24
70 c13 39 33 80 43 91 l20 21 17 -23 c10 -13 23 -33 30 -45z m-103 43 c6 -16
-21 -86 -34 -86 -4 0 -16 17 -26 37 -17 35 -17 38 0 50 23 17 53 17 60 -1z
m-376 -121 c0 -35 -20 -94 -36 -103 -9 -5 -16 -11 -15 -13 0 -2 -2 -14 -6 -27
-5 -22 -6 -22 -24 -6 -23 21 -49 103 -49 156 0 21 7 56 16 77 l16 40 49 -52
c26 -29 48 -61 49 -72z m225 45 c43 -59 43 -87 -3 -113 -28 -16 -37 -17 -62
-7 -43 18 -63 45 -56 74 7 27 62 96 76 96 5 0 25 -22 45 -50z m129 -234 c32
-33 30 -56 -5 -73 -20 -10 -34 -9 -69 2 -25 7 -40 14 -34 14 7 1 14 10 17 21
6 23 -8 27 -17 5 -3 -8 -13 -15 -23 -15 -15 0 -16 -2 -3 -11 11 -7 3 -8 -30
-4 -25 4 -71 7 -103 8 -31 0 -52 4 -46 7 6 4 2 9 -10 13 -37 9 -22 26 30 33
l52 7 -24 18 c-13 10 -20 21 -15 26 5 4 11 2 13 -5 3 -6 8 -10 12 -7 5 2 23
-7 41 -20 48 -35 71 -32 116 18 l39 42 16 -25 c9 -14 28 -38 43 -54z"/>
<path d="M8492 7358 c-17 -17 -15 -53 3 -68 23 -19 47 6 43 44 -3 33 -25 45
-46 24z"/>
<path d="M7683 7640 c-18 -10 -43 -36 -57 -57 -65 -101 -38 -217 61 -265 36
-18 41 -42 35 -195 l-5 -132 -53 -35 c-76 -51 -130 -123 -144 -193 -25 -119 9
-242 86 -313 62 -57 121 -80 204 -80 133 0 226 57 278 170 32 68 38 130 22
215 -18 96 -64 156 -155 199 -38 19 -78 37 -87 40 -16 5 -18 21 -18 145 0 77
-3 146 -6 154 -3 8 2 21 11 28 81 68 102 118 85 196 -26 114 -164 180 -257
123z m124 -102 c37 -36 40 -53 17 -86 -13 -18 -19 -21 -30 -11 -8 7 -12 20 -9
30 4 11 2 19 -5 19 -6 0 -9 -3 -7 -7 3 -5 -1 -13 -8 -20 -11 -10 -15 -10 -19
0 -3 9 -7 9 -14 -2 -16 -23 -42 -5 -42 29 0 34 38 80 67 80 9 0 32 -14 50 -32z
m88 -673 c22 -13 50 -34 61 -47 26 -27 40 -68 25 -68 -6 0 -11 -10 -11 -23 0
-52 -72 -146 -112 -147 -10 0 -18 -5 -18 -11 0 -5 -4 -8 -9 -5 -4 3 -22 1 -39
-3 -43 -13 -32 11 13 28 37 13 70 51 80 93 5 21 3 27 -15 33 -30 10 -110 -4
-127 -21 -22 -22 -30 -17 -35 21 -2 19 0 35 4 35 4 0 8 8 8 18 0 11 -7 6 -21
-16 -14 -22 -21 -48 -21 -77 1 -53 37 -140 66 -160 27 -19 3 -19 -33 0 -145
74 -122 313 36 371 47 17 95 10 148 -21z"/>
<path d="M7328 7440 c-44 -23 -52 -45 -43 -110 6 -44 10 -50 50 -71 38 -20 47
-22 82 -11 50 15 82 49 90 96 5 30 1 42 -18 63 -26 28 -77 53 -106 53 -10 -1
-35 -10 -55 -20z m76 -72 c4 4 6 -6 4 -23 -2 -22 -8 -30 -23 -30 -21 0 -31 25
-21 52 5 11 10 13 20 4 7 -6 16 -7 20 -3z"/>
<path d="M2875 7356 c-72 -31 -72 -76 -1 -123 56 -38 93 -41 129 -13 35 28 41
53 22 89 -28 54 -89 74 -150 47z"/>
<path d="M8480 6750 c-61 -8 -101 -31 -133 -77 -52 -76 -60 -180 -19 -263 23
-47 33 -57 72 -72 55 -21 139 -23 183 -5 87 37 142 124 135 213 -5 61 -42 139
-78 166 -38 28 -109 45 -160 38z m86 -124 c30 -30 34 -40 34 -86 0 -45 -4 -56
-31 -81 -18 -16 -42 -29 -57 -29 -40 0 -91 40 -103 82 -14 45 -7 77 27 117 37
44 84 43 130 -3z"/>
<path d="M8480 6555 c-23 -24 -23 -25 -5 -45 31 -34 85 -21 85 20 0 18 -30 50
-47 50 -5 0 -20 -11 -33 -25z"/>
<path d="M970 5831 c-141 -7 -171 -22 -215 -110 -26 -51 -16 -155 19 -216 52
-88 38 -86 467 -83 l375 3 41 27 c23 15 54 44 70 64 25 34 28 45 28 118 0 63
-4 89 -20 115 -35 59 -62 72 -171 81 -105 10 -404 10 -594 1z m68 -177 c1 -50
-2 -103 -8 -118 -9 -25 -14 -27 -57 -24 l-48 3 -3 109 c-3 124 -1 128 68 124
l45 -3 3 -91z m389 90 c22 -6 23 -10 20 -115 l-2 -109 -46 0 c-28 0 -49 5 -52
13 -2 6 -5 50 -6 97 -1 46 -5 88 -7 92 -15 24 38 37 93 22z m-177 -31 c0 -16
-3 -65 -7 -110 l-6 -83 -47 0 -47 0 -7 46 c-3 26 -6 75 -6 110 l0 64 60 0 c59
0 60 -1 60 -27z m370 -3 c33 -36 45 -76 31 -112 -8 -20 -15 -25 -35 -21 -21 4
-25 1 -28 -23 -2 -17 -10 -30 -19 -32 -14 -2 -17 13 -22 100 -3 56 -3 106 -1
110 11 17 48 6 74 -22z m10 -155 c0 -12 -19 -12 -23 0 -4 9 -1 12 9 8 7 -3 14
-7 14 -8z"/>
<path d="M7656 5507 c-69 -69 17 -139 112 -91 39 19 40 35 5 74 -40 43 -84 49
-117 17z"/>
<path d="M8543 5314 c-15 -39 42 -74 90 -55 21 8 27 17 27 41 0 30 0 30 -55
30 -42 0 -57 -4 -62 -16z"/>
<path d="M8750 5300 c-15 -28 -13 -30 25 -30 28 0 35 4 35 20 0 11 -3 20 -7
21 -5 0 -16 2 -26 4 -9 2 -22 -5 -27 -15z"/>
<path d="M1041 4596 c-7 -12 -11 -34 -9 -47 3 -21 9 -24 46 -27 53 -4 72 10
72 53 0 25 -5 34 -22 39 -46 12 -74 6 -87 -18z"/>
<path d="M1285 4613 c-60 -8 -69 -73 -12 -92 44 -16 63 -14 93 12 34 29 26 61
-18 76 -17 6 -31 10 -32 10 -1 -1 -14 -4 -31 -6z"/>
<path d="M8735 4455 c-33 -32 -31 -58 6 -89 70 -59 189 -1 149 74 -24 45 -116
55 -155 15z"/>
<path d="M1063 4423 c-27 -5 -26 -2 -12 -42 10 -29 14 -31 58 -31 26 0 50 3
54 6 9 10 -4 34 -19 34 -8 0 -14 9 -14 20 0 20 -15 23 -67 13z"/>
<path d="M2342 1812 c-57 -54 -50 -141 13 -171 67 -33 141 -5 158 58 27 105
-94 185 -171 113z"/>
<path d="M2744 1822 c-31 -24 -44 -55 -44 -99 1 -58 27 -85 88 -91 60 -5 93
11 117 59 21 40 12 81 -27 119 -23 24 -38 30 -71 30 -25 0 -51 -8 -63 -18z"/>
<path d="M7166 1821 c-38 -25 -55 -57 -56 -103 0 -73 87 -111 158 -68 30 19
32 23 32 79 0 58 -1 61 -37 86 -45 30 -59 31 -97 6z"/>
<path d="M7530 1782 c-37 -37 -40 -86 -9 -126 36 -45 120 -30 144 26 26 64 0
108 -72 123 -28 6 -38 2 -63 -23z"/>
<path d="M6920 1580 c0 -5 5 -10 10 -10 6 0 10 5 10 10 0 6 -4 10 -10 10 -5 0
-10 -4 -10 -10z"/>
<path d="M2736 1499 c-32 -25 -34 -66 -5 -103 27 -34 71 -35 104 -1 39 38 29
82 -25 110 -37 19 -42 19 -74 -6z"/>
<path d="M7167 1492 c-32 -33 -35 -70 -7 -100 28 -30 74 -29 105 3 32 31 33
74 2 103 -32 30 -68 28 -100 -6z"/>
<path d="M3150 1500 c-9 -6 -10 -10 -3 -10 6 0 15 5 18 10 8 12 4 12 -15 0z"/>
<path d="M2373 1483 c-16 -11 -23 -26 -23 -48 0 -63 70 -88 109 -39 30 38 27
70 -9 89 -36 19 -49 18 -77 -2z"/>
<path d="M7540 1461 c0 -37 63 -61 92 -34 17 15 17 17 2 35 -24 26 -94 25 -94
-1z"/>
</g>
</svg>
